<svg width="62" height="20" viewBox="0 0 62 20" fill="none" xmlns="http://www.w3.org/2000/svg">
<path d="M0 10C0 4.47715 4.47715 0 10 0H52C57.5228 0 62 4.47715 62 10C62 15.5228 57.5228 20 52 20H10C4.47715 20 0 15.5228 0 10Z" fill="#F5E6E6"/>
<path d="M10.0232 5.504H11.1752V9.032H15.5792V5.504H16.7313V14H15.5792V10.112H11.1752V14H10.0232V5.504ZM19.1178 5.504H20.2698V14H19.1178V5.504ZM29.8936 9.248V13.436C29.6856 13.564 29.4496 13.676 29.1856 13.772C28.9216 13.868 28.6456 13.948 28.3576 14.012C28.0776 14.084 27.7896 14.136 27.4936 14.168C27.2056 14.2 26.9336 14.216 26.6776 14.216C25.9576 14.216 25.3136 14.096 24.7456 13.856C24.1856 13.616 23.7096 13.292 23.3176 12.884C22.9336 12.476 22.6376 12.004 22.4296 11.468C22.2296 10.924 22.1296 10.352 22.1296 9.752C22.1296 9.12 22.2376 8.532 22.4536 7.988C22.6776 7.444 22.9816 6.972 23.3656 6.572C23.7576 6.172 24.2256 5.86 24.7696 5.636C25.3136 5.404 25.9096 5.288 26.5576 5.288C27.3416 5.288 27.9816 5.388 28.4776 5.588C28.9736 5.78 29.3896 6.048 29.7256 6.392L28.9096 7.268C28.5576 6.932 28.1856 6.7 27.7936 6.572C27.4016 6.436 26.9896 6.368 26.5576 6.368C26.0696 6.368 25.6296 6.46 25.2376 6.644C24.8456 6.82 24.5096 7.06 24.2296 7.364C23.9496 7.668 23.7336 8.028 23.5816 8.444C23.4296 8.852 23.3536 9.288 23.3536 9.752C23.3536 10.232 23.4376 10.68 23.6056 11.096C23.7736 11.504 24.0056 11.86 24.3016 12.164C24.5976 12.468 24.9456 12.708 25.3456 12.884C25.7456 13.052 26.1816 13.136 26.6536 13.136C27.0616 13.136 27.4456 13.1 27.8056 13.028C28.1736 12.948 28.4856 12.836 28.7416 12.692V10.328H26.8576V9.248H29.8936ZM32.1975 5.504H33.3495V9.032H37.7535V5.504H38.9055V14H37.7535V10.112H33.3495V14H32.1975V5.504Z" fill="black"/>
<circle cx="50" cy="10" r="4" fill="#9D0208"/>
</svg>
