<svg width="81" height="20" viewBox="0 0 81 20" fill="none" xmlns="http://www.w3.org/2000/svg">
<path d="M0 10C0 4.47715 4.47715 0 10 0H71C76.5229 0 81 4.47715 81 10C81 15.5228 76.5229 20 71 20H10C4.47715 20 0 15.5228 0 10Z" fill="#FFF8E6"/>
<path d="M9.23847 5.504H10.9545L13.6545 11.936H13.7025L16.3785 5.504H18.0945V14H16.9425V7.016H16.9185L14.0505 14H13.2825L10.4145 7.016H10.3905V14H9.23847V5.504ZM20.3975 5.504H25.8815V6.584H21.5495V9.116H25.5815V10.196H21.5495V12.92H26.0975V14H20.3975V5.504ZM27.7414 5.504H30.7054C31.3054 5.504 31.8294 5.572 32.2774 5.708C32.7334 5.844 33.1254 6.028 33.4534 6.26C33.7894 6.484 34.0654 6.744 34.2814 7.04C34.5054 7.336 34.6814 7.64 34.8094 7.952C34.9374 8.264 35.0294 8.576 35.0854 8.888C35.1414 9.2 35.1694 9.488 35.1694 9.752C35.1694 10.296 35.0694 10.824 34.8694 11.336C34.6694 11.84 34.3734 12.292 33.9814 12.692C33.5894 13.084 33.1014 13.4 32.5174 13.64C31.9414 13.88 31.2734 14 30.5134 14H27.7414V5.504ZM28.8934 12.92H30.3454C30.8334 12.92 31.2934 12.856 31.7254 12.728C32.1654 12.592 32.5494 12.392 32.8774 12.128C33.2054 11.864 33.4654 11.536 33.6574 11.144C33.8494 10.744 33.9454 10.28 33.9454 9.752C33.9454 9.48 33.9014 9.164 33.8134 8.804C33.7254 8.436 33.5574 8.088 33.3094 7.76C33.0694 7.432 32.7334 7.156 32.3014 6.932C31.8694 6.7 31.3094 6.584 30.6214 6.584H28.8934V12.92ZM37.0279 5.504H38.1799V14H37.0279V5.504ZM41.5638 5.504V10.712C41.5638 10.976 41.5998 11.252 41.6718 11.54C41.7438 11.82 41.8638 12.08 42.0318 12.32C42.1998 12.56 42.4198 12.756 42.6918 12.908C42.9638 13.06 43.2998 13.136 43.6998 13.136C44.0998 13.136 44.4358 13.06 44.7078 12.908C44.9798 12.756 45.1998 12.56 45.3678 12.32C45.5358 12.08 45.6558 11.82 45.7278 11.54C45.7998 11.252 45.8358 10.976 45.8358 10.712V5.504H46.9878V10.892C46.9878 11.388 46.9038 11.84 46.7358 12.248C46.5678 12.648 46.3358 12.996 46.0398 13.292C45.7438 13.588 45.3958 13.816 44.9958 13.976C44.5958 14.136 44.1638 14.216 43.6998 14.216C43.2358 14.216 42.8038 14.136 42.4038 13.976C42.0038 13.816 41.6558 13.588 41.3598 13.292C41.0638 12.996 40.8318 12.648 40.6638 12.248C40.4958 11.84 40.4118 11.388 40.4118 10.892V5.504H41.5638ZM49.133 5.504H50.849L53.549 11.936H53.597L56.273 5.504H57.989V14H56.837V7.016H56.813L53.945 14H53.177L50.309 7.016H50.285V14H49.133V5.504Z" fill="black"/>
<circle cx="69" cy="10" r="4" fill="#FFBA08"/>
</svg>
