<svg width="611" height="374" viewBox="0 0 611 374" fill="none" xmlns="http://www.w3.org/2000/svg">
<path d="M32.044 182.267C-37.0412 276.639 31.066 341.812 31.066 341.812C43.026 357.761 95.7293 388.799 248.791 360.408C306.906 349.629 553.959 406.338 596.545 343.068C639.131 279.797 564.783 250.279 583.867 196.079C606.482 131.86 583.867 59.99 528.188 28.5428C436.727 -12.3215 356.942 54.6056 295.658 22.4962C234.373 -9.61312 137.716 -4.21805 97.4098 22.4962C41.6379 77.7995 93.7579 97.9381 32.044 182.267Z" fill="white"/>
<path d="M478.553 335.82H168.48C164.043 335.82 160.417 332.194 160.417 327.757V122.434C160.417 117.997 164.043 114.371 168.48 114.371H478.529C482.966 114.371 486.592 117.997 486.592 122.434V327.757C486.592 332.194 482.966 335.82 478.553 335.82Z" fill="#C7D2EE"/>
<path d="M479.245 122.124H167.789V333.578H479.245V122.124Z" fill="#DDE7FE"/>
<path d="M519.584 341.403H127.449C124.253 341.403 121.652 338.802 121.652 335.606V333.029C121.652 329.833 124.253 327.232 127.449 327.232H519.584C522.781 327.232 525.381 329.833 525.381 333.029V335.606C525.381 338.802 522.781 341.403 519.584 341.403Z" fill="#C7D2EE"/>
<path d="M168.231 327.506V122.566H478.802V327.506H168.231Z" fill="#EBEFFA" stroke="#101840" stroke-width="0.885172"/>
<path d="M563.179 342.13H72.1912C71.8831 342.13 71.6329 341.954 71.6329 341.736V341.587C71.6329 341.37 71.8831 341.193 72.1912 341.193H563.179C563.487 341.193 563.737 341.37 563.737 341.587V341.736C563.756 341.954 563.487 342.13 563.179 342.13Z" fill="#101840"/>
<rect opacity="0.9" x="233.931" y="139.537" width="225.719" height="12.3924" rx="3.54069" fill="white"/>
<rect opacity="0.9" x="233.931" y="174.944" width="225.719" height="12.3924" rx="3.54069" fill="white"/>
<rect opacity="0.9" x="233.931" y="210.351" width="225.719" height="12.3924" rx="3.54069" fill="white"/>
<rect opacity="0.9" x="233.931" y="245.758" width="225.719" height="12.3924" rx="3.54069" fill="white"/>
<rect opacity="0.9" x="233.931" y="281.165" width="225.719" height="12.3924" rx="3.54069" fill="white"/>
<path d="M212.096 138.38C211.609 138.196 211.116 138.149 210.592 138.183C210.592 138.183 210.592 138.183 210.511 138.152C210.099 138.136 209.601 138.226 209.077 138.26C206.515 138.405 203.037 138.762 199.834 139.129C198.095 139.307 196.493 139.491 195.39 139.585C194.536 139.633 193.778 140.043 193.313 140.656C192.88 141.189 192.659 141.895 192.769 142.586L194.237 154.052C194.441 155.847 196.094 157.123 198.046 157.118L211.715 156.947C213.641 156.886 215.155 155.462 215.17 153.703C215.189 148.371 215.168 143.395 214.392 140.78C214.136 139.616 213.264 138.729 212.096 138.38ZM213.42 141.017C214.12 143.463 214.173 148.358 214.184 153.609C214.165 154.763 213.111 155.71 211.82 155.687L198.151 155.857C196.748 155.884 195.602 154.986 195.402 153.796L193.959 142.386C193.92 142 194.017 141.619 194.277 141.3C194.568 140.899 195.072 140.671 195.596 140.637C196.755 140.518 198.357 140.335 200.121 140.213C202.938 139.885 206.222 139.548 208.703 139.372C209.42 139.318 210.081 139.289 210.686 139.286C211.153 139.277 211.59 139.349 211.996 139.503C212.59 139.774 213.199 140.376 213.42 141.017Z" fill="#101840"/>
<path opacity="0.6" d="M197.036 141.739C199.878 141.467 206.148 140.727 209.065 140.623C210.331 140.591 211.458 141.296 211.744 142.379C212.349 144.465 212.373 148.699 212.357 152.547C212.339 153.701 211.284 154.648 210.018 154.68L199.1 154.823C197.753 154.824 196.606 153.927 196.487 152.768L195.338 143.651C195.183 142.71 195.989 141.807 197.036 141.739Z" fill="#F6F7F9"/>
<path d="M197.544 142.669C198.469 142.129 199.636 142.401 200.176 143.325L202.761 147.691C203.019 148.127 203.673 148.078 203.841 147.633L209.652 133.948C209.955 133.258 210.974 133.474 210.944 134.225C210.979 138.389 210.063 146.301 203.525 153.062C203.525 153.062 199.843 151.712 196.763 145.296C196.376 144.302 196.671 143.186 197.544 142.669Z" fill="#3357C6"/>
<path d="M212.096 173.694C211.609 173.51 211.116 173.463 210.592 173.497C210.592 173.497 210.592 173.497 210.511 173.466C210.099 173.45 209.601 173.54 209.077 173.574C206.515 173.72 203.037 174.076 199.834 174.443C198.095 174.621 196.493 174.805 195.39 174.899C194.536 174.947 193.778 175.357 193.313 175.971C192.88 176.503 192.659 177.209 192.769 177.901L194.237 189.367C194.441 191.161 196.094 192.437 198.046 192.432L211.715 192.261C213.641 192.2 215.155 190.776 215.17 189.017C215.189 183.686 215.168 178.709 214.392 176.095C214.136 174.93 213.264 174.043 212.096 173.694ZM213.42 176.331C214.12 178.778 214.173 183.673 214.184 188.923C214.165 190.077 213.111 191.025 211.82 191.001L198.151 191.172C196.748 191.198 195.602 190.3 195.402 189.111L193.959 177.701C193.92 177.314 194.017 176.933 194.277 176.614C194.568 176.213 195.072 175.986 195.596 175.951C196.755 175.833 198.357 175.649 200.121 175.527C202.938 175.199 206.222 174.862 208.703 174.686C209.42 174.632 210.081 174.604 210.686 174.6C211.153 174.591 211.59 174.664 211.996 174.817C212.59 175.088 213.199 175.69 213.42 176.331Z" fill="#101840"/>
<path opacity="0.6" d="M197.036 177.053C199.878 176.781 206.148 176.041 209.065 175.938C210.331 175.905 211.458 176.61 211.744 177.693C212.349 179.779 212.373 184.013 212.357 187.861C212.339 189.015 211.284 189.962 210.018 189.994L199.1 190.137C197.753 190.139 196.606 189.241 196.487 188.082L195.338 178.965C195.183 178.024 195.989 177.122 197.036 177.053Z" fill="#F6F7F9"/>
<path d="M197.544 177.983C198.469 177.443 199.636 177.715 200.176 178.639L202.761 183.005C203.019 183.442 203.673 183.392 203.841 182.948L209.652 169.262C209.955 168.572 210.974 168.788 210.944 169.539C210.979 173.703 210.063 181.615 203.525 188.376C203.525 188.376 199.843 187.026 196.763 180.61C196.376 179.617 196.671 178.5 197.544 177.983Z" fill="#3357C6"/>
<path d="M212.096 209.008C211.609 208.824 211.116 208.777 210.592 208.811C210.592 208.811 210.592 208.811 210.511 208.78C210.099 208.764 209.601 208.854 209.077 208.888C206.515 209.034 203.037 209.39 199.834 209.757C198.095 209.936 196.493 210.119 195.39 210.213C194.536 210.261 193.778 210.671 193.313 211.285C192.88 211.817 192.659 212.523 192.769 213.215L194.237 224.681C194.441 226.476 196.094 227.751 198.046 227.746L211.715 227.575C213.641 227.514 215.155 226.09 215.17 224.332C215.189 219 215.168 214.023 214.392 211.409C214.136 210.244 213.264 209.357 212.096 209.008ZM213.42 211.645C214.12 214.092 214.173 218.987 214.184 224.237C214.165 225.391 213.111 226.339 211.82 226.315L198.151 226.486C196.748 226.512 195.602 225.615 195.402 224.425L193.959 213.015C193.92 212.628 194.017 212.247 194.277 211.928C194.568 211.527 195.072 211.3 195.596 211.266C196.755 211.147 198.357 210.963 200.121 210.841C202.938 210.513 206.222 210.177 208.703 210C209.42 209.946 210.081 209.918 210.686 209.914C211.153 209.905 211.59 209.978 211.996 210.131C212.59 210.402 213.199 211.004 213.42 211.645Z" fill="#101840"/>
<path opacity="0.6" d="M197.036 212.367C199.878 212.096 206.148 211.356 209.065 211.252C210.331 211.22 211.458 211.924 211.744 213.008C212.349 215.093 212.373 219.327 212.357 223.175C212.339 224.329 211.284 225.276 210.018 225.309L199.1 225.451C197.753 225.453 196.606 224.555 196.487 223.396L195.338 214.279C195.183 213.338 195.989 212.436 197.036 212.367Z" fill="#F6F7F9"/>
<path d="M197.544 213.297C198.469 212.757 199.636 213.029 200.176 213.954L202.761 218.319C203.019 218.756 203.673 218.707 203.841 218.262L209.652 204.576C209.955 203.886 210.974 204.102 210.944 204.854C210.979 209.017 210.063 216.93 203.525 223.691C203.525 223.691 199.843 222.34 196.763 215.924C196.376 214.931 196.671 213.814 197.544 213.297Z" fill="#3357C6"/>
<path d="M212.096 244.323C211.609 244.138 211.116 244.091 210.592 244.125C210.592 244.125 210.592 244.125 210.511 244.095C210.099 244.078 209.601 244.168 209.077 244.202C206.515 244.348 203.037 244.704 199.834 245.072C198.095 245.25 196.493 245.433 195.39 245.527C194.536 245.576 193.778 245.985 193.313 246.599C192.88 247.131 192.659 247.837 192.769 248.529L194.237 259.995C194.441 261.79 196.094 263.065 198.046 263.06L211.715 262.889C213.641 262.829 215.155 261.404 215.17 259.646C215.189 254.314 215.168 249.338 214.392 246.723C214.136 245.558 213.264 244.671 212.096 244.323ZM213.42 246.959C214.12 249.406 214.173 254.301 214.184 259.552C214.165 260.705 213.111 261.653 211.82 261.629L198.151 261.8C196.748 261.827 195.602 260.929 195.402 259.739L193.959 248.329C193.92 247.942 194.017 247.562 194.277 247.242C194.568 246.841 195.072 246.614 195.596 246.58C196.755 246.461 198.357 246.277 200.121 246.155C202.938 245.827 206.222 245.491 208.703 245.315C209.42 245.261 210.081 245.232 210.686 245.228C211.153 245.22 211.59 245.292 211.996 245.446C212.59 245.717 213.199 246.318 213.42 246.959Z" fill="#101840"/>
<path opacity="0.6" d="M197.036 247.682C199.878 247.41 206.148 246.67 209.065 246.566C210.331 246.534 211.458 247.238 211.744 248.322C212.349 250.407 212.373 254.642 212.357 258.489C212.339 259.643 211.284 260.591 210.018 260.623L199.1 260.766C197.753 260.767 196.606 259.869 196.487 258.71L195.338 249.593C195.183 248.652 195.989 247.75 197.036 247.682Z" fill="#F6F7F9"/>
<path d="M197.544 248.611C198.469 248.071 199.636 248.344 200.176 249.268L202.761 253.633C203.019 254.07 203.673 254.021 203.841 253.576L209.652 239.891C209.955 239.201 210.974 239.417 210.944 240.168C210.979 244.332 210.063 252.244 203.525 259.005C203.525 259.005 199.843 257.655 196.763 251.238C196.376 250.245 196.671 249.128 197.544 248.611Z" fill="#3357C6"/>
<path d="M212.096 279.122C211.609 278.938 211.116 278.891 210.592 278.925C210.592 278.925 210.592 278.925 210.511 278.894C210.099 278.878 209.601 278.968 209.077 279.002C206.515 279.148 203.037 279.504 199.834 279.871C198.095 280.05 196.493 280.233 195.39 280.327C194.536 280.375 193.778 280.785 193.313 281.399C192.88 281.931 192.659 282.637 192.769 283.329L194.237 294.795C194.441 296.59 196.094 297.865 198.046 297.86L211.715 297.689C213.641 297.628 215.155 296.204 215.17 294.446C215.189 289.114 215.168 284.137 214.392 281.523C214.136 280.358 213.264 279.471 212.096 279.122ZM213.42 281.759C214.12 284.206 214.173 289.101 214.184 294.351C214.165 295.505 213.111 296.453 211.82 296.429L198.151 296.6C196.748 296.626 195.602 295.729 195.402 294.539L193.959 283.129C193.92 282.742 194.017 282.361 194.277 282.042C194.568 281.641 195.072 281.414 195.596 281.38C196.755 281.261 198.357 281.077 200.121 280.955C202.938 280.627 206.222 280.291 208.703 280.114C209.42 280.06 210.081 280.032 210.686 280.028C211.153 280.019 211.59 280.092 211.996 280.245C212.59 280.516 213.199 281.118 213.42 281.759Z" fill="#101840"/>
<path opacity="0.6" d="M197.036 282.481C199.878 282.21 206.148 281.47 209.065 281.366C210.331 281.334 211.458 282.038 211.744 283.122C212.349 285.207 212.373 289.441 212.357 293.289C212.339 294.443 211.284 295.391 210.018 295.423L199.1 295.565C197.753 295.567 196.606 294.669 196.487 293.51L195.338 284.393C195.183 283.452 195.989 282.55 197.036 282.481Z" fill="#F6F7F9"/>
<path d="M197.544 283.411C198.469 282.871 199.636 283.143 200.176 284.068L202.761 288.433C203.019 288.87 203.673 288.821 203.841 288.376L209.652 274.69C209.955 274 210.974 274.216 210.944 274.968C210.979 279.131 210.063 287.044 203.525 293.805C203.525 293.805 199.843 292.454 196.763 286.038C196.376 285.045 196.671 283.928 197.544 283.411Z" fill="#3357C6"/>
<rect x="383.288" y="197" width="109.692" height="130.975" rx="5.99099" fill="#3357C6"/>
<path d="M390.143 229.919V211.56C390.143 208.192 392.756 205.492 395.965 205.492H480.303C483.503 205.492 486.126 208.192 486.126 211.56V229.919C486.126 233.277 483.512 235.987 480.303 235.987H395.965C392.765 235.987 390.143 233.286 390.143 229.919Z" fill="#EBEFFA" stroke="#101840" stroke-width="0.611319"/>
<path opacity="0.9" d="M481.968 211.623C481.214 210.842 480.172 210.395 479.083 210.376L398.914 209.092C396.773 209.055 394.959 210.684 394.763 212.815L393.098 230.598C392.958 232.05 395.359 233.278 398.411 233.315L477.222 234.274C480.274 234.311 482.796 233.148 482.815 231.696L483.112 214.545C483.14 213.457 482.722 212.405 481.968 211.623Z" fill="white"/>
<path d="M400.655 221.103L400.69 217.794L401.183 216.526C401.606 216.632 401.852 216.914 401.958 217.301L401.923 221.702L401.606 222.019L400.655 221.103ZM401.606 222.371L401.923 222.688L401.887 227.089C401.782 227.511 401.5 227.758 401.113 227.863L400.655 226.596L400.69 223.286L401.606 222.371Z" fill="#101840"/>
<path d="M406.183 218.146L406.148 221.138L405.197 222.089L404.88 221.772L404.915 217.688L406.183 218.146ZM404.88 226.772L404.915 222.688L405.232 222.371L406.183 223.321L406.148 226.314L404.88 226.772ZM410.373 227.898L405.655 227.863C405.232 227.758 404.986 227.476 404.88 227.089L406.148 226.631L409.915 226.666L410.373 227.898ZM409.95 217.864L406.183 217.829L404.915 217.336C405.021 216.913 405.303 216.667 405.69 216.561L410.373 216.597L409.95 217.864ZM410.267 221.138L410.302 217.829L410.795 216.561C411.218 216.667 411.464 216.949 411.57 217.336L411.535 221.737L411.218 222.054L410.267 221.138ZM411.183 222.406L411.499 222.723L411.464 227.124C411.359 227.546 411.077 227.793 410.69 227.898L410.232 226.631L410.267 223.321L411.183 222.406Z" fill="#101840"/>
<path d="M415.759 218.216L415.724 221.209L414.774 222.16L414.457 221.843L414.492 217.759L415.759 218.216ZM414.457 226.842L414.492 222.758L414.809 222.441L415.759 223.392L415.724 226.385L414.457 226.842ZM419.949 227.969L415.231 227.934C414.809 227.828 414.562 227.547 414.457 227.159L415.724 226.702L419.492 226.737L419.949 227.969ZM419.527 217.9L415.759 217.864L414.492 217.371C414.598 216.949 414.879 216.702 415.267 216.597L419.949 216.632L419.527 217.9ZM419.844 221.209L419.879 217.9L420.372 216.632C420.794 216.738 421.041 217.019 421.146 217.407L421.111 221.808L420.794 222.125L419.844 221.209ZM420.759 222.477L421.076 222.793L421.041 227.194C420.935 227.617 420.653 227.863 420.266 227.969L419.808 226.702L419.844 223.392L420.759 222.477Z" fill="#101840"/>
<path d="M425.336 218.252L425.301 221.244L424.35 222.195L424.033 221.878L424.069 217.794L425.336 218.252ZM424.033 226.878L424.069 222.793L424.386 222.477L425.336 223.427L425.301 226.42L424.033 226.878ZM429.526 228.039L424.808 228.004C424.386 227.899 424.139 227.617 424.033 227.23L425.301 226.772L429.068 226.807L429.526 228.039ZM429.139 217.97L425.371 217.935L424.104 217.442C424.209 217.019 424.491 216.773 424.878 216.667L429.561 216.702L429.139 217.97ZM429.42 221.279L429.456 217.97L429.948 216.702C430.371 216.808 430.617 217.09 430.723 217.477L430.688 221.878L430.371 222.195L429.42 221.279ZM430.371 222.547L430.688 222.864L430.653 227.265C430.547 227.687 430.265 227.934 429.878 228.039L429.42 226.772L429.456 223.462L430.371 222.547Z" fill="#101840"/>
<path d="M434.948 218.322L434.913 221.315L433.962 222.265L433.645 221.948L433.68 217.864L434.948 218.322ZM433.645 226.948L433.68 222.864L433.997 222.547L434.948 223.497L434.913 226.49L433.645 226.948ZM439.138 228.075L434.42 228.039C433.997 227.934 433.751 227.652 433.645 227.265L434.913 226.807L438.68 226.842L439.138 228.075ZM438.715 218.04L434.948 218.005L433.68 217.512C433.786 217.09 434.068 216.843 434.455 216.738L439.138 216.773L438.715 218.04ZM438.997 221.315L439.032 218.005L439.525 216.738C439.947 216.843 440.194 217.125 440.299 217.512L440.264 221.913L439.947 222.23L438.997 221.315ZM439.947 222.582L440.264 222.899L440.229 227.3C440.123 227.722 439.842 227.969 439.454 228.075L438.997 226.807L439.032 223.497L439.947 222.582Z" fill="#101840"/>
<path d="M444.524 218.392L444.489 221.385L443.539 222.336L443.222 222.019L443.257 217.935L444.524 218.392ZM443.222 227.018L443.257 222.934L443.574 222.617L444.524 223.568L444.489 226.561L443.222 227.018ZM448.714 228.145L443.996 228.11C443.574 228.004 443.327 227.723 443.222 227.335L444.489 226.878L448.256 226.913L448.714 228.145ZM448.292 218.076L444.524 218.04L443.257 217.547C443.363 217.125 443.644 216.878 444.031 216.773L448.714 216.808L448.292 218.076ZM448.573 221.385L448.608 218.076L449.101 216.808C449.524 216.914 449.77 217.195 449.876 217.583L449.841 221.984L449.524 222.301L448.573 221.385ZM449.524 222.653L449.841 222.969L449.806 227.37C449.7 227.793 449.418 228.039 449.031 228.145L448.573 226.878L448.608 223.568L449.524 222.653Z" fill="#101840"/>
<path d="M454.101 218.428L454.066 221.42L453.115 222.371L452.798 222.054L452.834 217.97L454.101 218.428ZM452.798 227.089L452.834 223.005L453.15 222.688L454.101 223.639L454.066 226.631L452.798 227.089ZM458.291 228.216L453.573 228.18C453.15 228.075 452.904 227.793 452.798 227.406L454.066 226.948L457.833 226.983L458.291 228.216ZM457.868 218.146L454.101 218.111L452.834 217.618C452.939 217.195 453.221 216.949 453.608 216.843L458.291 216.879L457.868 218.146ZM458.185 221.456L458.22 218.146L458.713 216.879C459.136 216.984 459.382 217.266 459.488 217.653L459.453 222.054L459.136 222.371L458.185 221.456ZM459.101 222.723L459.417 223.04L459.382 227.441C459.277 227.864 458.995 228.11 458.608 228.216L458.15 226.948L458.185 223.639L459.101 222.723Z" fill="#101840"/>
<path d="M463.678 218.498L463.642 221.491L462.692 222.441L462.375 222.124L462.41 218.04L463.678 218.498ZM462.375 227.124L462.41 223.04L462.727 222.723L463.678 223.673L463.642 226.666L462.375 227.124ZM467.867 228.251L463.15 228.215C462.727 228.11 462.481 227.828 462.375 227.441L463.642 226.983L467.41 227.018L467.867 228.251ZM467.48 218.216L463.713 218.181L462.445 217.688C462.551 217.266 462.833 217.019 463.22 216.914L467.903 216.949L467.48 218.216ZM467.762 221.526L467.797 218.216L468.29 216.949C468.712 217.054 468.959 217.336 469.065 217.723L469.029 222.124L468.712 222.441L467.762 221.526ZM468.712 222.758L469.029 223.075L468.994 227.476C468.888 227.898 468.607 228.145 468.22 228.251L467.762 226.983L467.797 223.673L468.712 222.758Z" fill="#101840"/>
<path d="M473.29 218.568L473.254 221.561L472.304 222.512L471.987 222.195L472.022 218.111L473.29 218.568ZM471.952 227.194L471.987 223.11L472.304 222.793L473.254 223.744L473.219 226.737L471.952 227.194ZM477.444 228.321L472.726 228.286C472.304 228.18 472.057 227.899 471.952 227.511L473.219 227.054L476.987 227.089L477.444 228.321ZM477.057 218.252L473.29 218.216L472.022 217.723C472.128 217.301 472.409 217.054 472.797 216.949L477.479 216.984L477.057 218.252ZM477.339 221.561L477.374 218.252L477.867 216.984C478.289 217.09 478.536 217.371 478.641 217.759L478.606 222.16L478.289 222.477L477.339 221.561ZM478.289 222.829L478.606 223.145L478.571 227.546C478.465 227.969 478.184 228.215 477.796 228.321L477.339 227.054L477.374 223.744L478.289 222.829Z" fill="#101840"/>
<path d="M409.624 254.058C409.624 257.222 407.056 259.79 403.892 259.79H396.922C393.758 259.79 391.19 257.222 391.19 254.058C391.19 250.894 393.758 248.326 396.922 248.326H403.892C407.065 248.335 409.624 250.894 409.624 254.058Z" fill="white"/>
<path d="M435.532 254.058C435.532 257.222 432.964 259.79 429.8 259.79H422.83C419.666 259.79 417.097 257.222 417.097 254.058C417.097 250.894 419.666 248.326 422.83 248.326H429.8C432.964 248.335 435.532 250.894 435.532 254.058Z" fill="white"/>
<path d="M460.434 254.058C460.434 257.222 457.866 259.79 454.702 259.79H447.732C444.568 259.79 442 257.222 442 254.058C442 250.894 444.568 248.326 447.732 248.326H454.702C457.866 248.335 460.434 250.894 460.434 254.058Z" fill="white"/>
<path opacity="0.3" d="M485.681 254.905C485.681 258.115 483.075 260.73 479.855 260.73H473.118C469.907 260.73 467.292 258.125 467.292 254.905C467.292 251.694 469.898 249.079 473.118 249.079H479.855C483.075 249.079 485.681 251.685 485.681 254.905Z" fill="white"/>
<path d="M409.624 271.99C409.624 275.154 407.056 277.723 403.892 277.723H396.922C393.758 277.723 391.19 275.154 391.19 271.99C391.19 268.826 393.758 266.258 396.922 266.258H403.892C407.065 266.267 409.624 268.826 409.624 271.99Z" fill="white"/>
<path d="M435.532 271.99C435.532 275.154 432.964 277.723 429.8 277.723H422.83C419.666 277.723 417.097 275.154 417.097 271.99C417.097 268.826 419.666 266.258 422.83 266.258H429.8C432.964 266.267 435.532 268.826 435.532 271.99Z" fill="white"/>
<path d="M460.434 271.99C460.434 275.154 457.866 277.723 454.702 277.723H447.732C444.568 277.723 442 275.154 442 271.99C442 268.826 444.568 266.258 447.732 266.258H454.702C457.866 266.267 460.434 268.826 460.434 271.99Z" fill="white"/>
<path d="M486.332 271.99C486.332 275.154 483.764 277.723 480.6 277.723H473.63C470.466 277.723 467.897 275.154 467.897 271.99C467.897 268.826 470.466 266.258 473.63 266.258H480.6C483.773 266.267 486.332 268.826 486.332 271.99Z" fill="white"/>
<path d="M409.624 287.875C409.624 291.039 407.056 293.607 403.892 293.607H396.922C393.758 293.607 391.19 291.039 391.19 287.875C391.19 284.711 393.758 282.143 396.922 282.143H403.892C407.065 282.143 409.624 284.711 409.624 287.875Z" fill="white"/>
<path d="M435.532 287.875C435.532 291.039 432.963 293.607 429.799 293.607H422.829C419.665 293.607 417.097 291.039 417.097 287.875C417.097 284.711 419.665 282.143 422.829 282.143H429.799C432.963 282.143 435.532 284.711 435.532 287.875Z" fill="white"/>
<path d="M460.434 287.875C460.434 291.039 457.866 293.607 454.702 293.607H447.732C444.568 293.607 442 291.039 442 287.875C442 284.711 444.568 282.143 447.732 282.143H454.702C457.866 282.143 460.434 284.711 460.434 287.875Z" fill="white"/>
<path d="M409.624 305.305C409.624 308.469 407.056 311.037 403.892 311.037H396.922C393.758 311.037 391.19 308.469 391.19 305.305C391.19 302.141 393.758 299.572 396.922 299.572H403.892C407.065 299.582 409.624 302.141 409.624 305.305Z" fill="white"/>
<path d="M435.532 305.305C435.532 308.469 432.963 311.037 429.799 311.037H422.829C419.665 311.037 417.097 308.469 417.097 305.305C417.097 302.141 419.665 299.572 422.829 299.572H429.799C432.963 299.582 435.532 302.141 435.532 305.305Z" fill="white"/>
<path d="M460.434 305.305C460.434 308.469 457.866 311.037 454.702 311.037H447.732C444.568 311.037 442 308.469 442 305.305C442 302.141 444.568 299.572 447.732 299.572H454.702C457.866 299.582 460.434 302.141 460.434 305.305Z" fill="white"/>
<path d="M483.847 304.839C483.847 308.841 480.6 312.089 476.598 312.089H476.161C472.159 312.089 468.912 308.841 468.912 304.839V290.946C468.912 286.944 472.159 283.697 476.161 283.697H476.598C480.6 283.697 483.847 286.944 483.847 290.946V304.839Z" fill="white"/>
<path d="M229.769 118.897C231.751 149.769 208.333 176.4 177.46 178.381C146.588 180.363 118.5 155.946 116.518 125.074C114.537 94.2015 139.412 68.5702 170.284 66.5883C201.156 64.6064 227.787 88.0244 229.769 118.897Z" fill="#3357C6"/>
<path opacity="0.99" d="M221.833 119.406C223.537 145.947 203.401 168.844 176.861 170.548C150.319 172.252 126.167 151.241 124.463 124.703C122.761 98.1815 144.132 76.1397 170.691 74.4347C197.231 72.7309 220.129 92.866 221.833 119.406Z" fill="#F6F7F9" stroke="#101840" stroke-width="0.65614"/>
<path d="M215.36 116.446C216.908 140.564 198.208 161.395 173.589 162.975C148.97 164.555 126.606 145.503 125.057 121.386C123.509 97.2688 143.364 77.221 167.982 75.6405C192.601 74.0601 213.812 92.329 215.36 116.446Z" fill="white"/>
<path d="M136.25 123.167C136.261 124.722 135.006 125.993 133.443 126.005C131.888 126.015 130.616 124.76 130.605 123.197C130.594 121.642 131.85 120.371 133.413 120.359C134.976 120.356 136.248 121.612 136.25 123.167Z" fill="#101840"/>
<path d="M217.686 123.167C217.697 124.722 216.442 125.993 214.879 126.005C213.324 126.015 212.052 124.76 212.041 123.197C212.03 121.642 213.285 120.371 214.848 120.359C216.412 120.356 217.675 121.612 217.686 123.167Z" fill="#101840"/>
<path d="M175.908 160.136C177.532 160.329 178.685 161.79 178.501 163.413C178.309 165.037 176.848 166.191 175.225 166.007C173.601 165.814 172.447 164.353 172.631 162.73C172.815 161.107 174.284 159.944 175.908 160.136Z" fill="#101840"/>
<path d="M175.902 80.8998C177.468 81.0855 178.58 82.4938 178.402 84.0585C178.217 85.6237 176.808 86.736 175.244 86.5585C173.678 86.3729 172.566 84.9645 172.744 83.3998C172.929 81.8346 174.346 80.7218 175.902 80.8998Z" fill="#101840"/>
<path d="M195.418 157.547C195.853 158.483 195.824 159.375 195.332 159.556C194.851 159.737 194.094 159.132 193.659 158.196C193.224 157.259 193.252 156.368 193.744 156.186C194.226 156.016 194.972 156.622 195.418 157.547Z" fill="#101840"/>
<path d="M158.212 85.8471C158.647 86.7835 158.618 87.6747 158.127 87.8563C157.645 88.0372 156.888 87.4322 156.453 86.4957C156.018 85.5593 156.047 84.6681 156.539 84.4865C157.021 84.3162 157.767 84.922 158.212 85.8471Z" fill="#101840"/>
<path d="M210.681 141.594C211.542 142.16 211.979 142.946 211.651 143.353C211.334 143.759 210.372 143.628 209.511 143.062C208.649 142.495 208.213 141.709 208.541 141.302C208.868 140.896 209.819 141.027 210.681 141.594Z" fill="#101840"/>
<path d="M139.461 101.881C140.323 102.447 140.759 103.234 140.431 103.641C140.114 104.047 139.152 103.916 138.291 103.349C137.43 102.783 136.993 101.997 137.321 101.59C137.638 101.184 138.6 101.315 139.461 101.881Z" fill="#101840"/>
<path d="M208.627 102.341C209.527 101.844 210.425 101.819 210.638 102.287C210.85 102.756 210.29 103.552 209.39 104.05C208.49 104.547 207.591 104.572 207.379 104.104C207.167 103.635 207.727 102.849 208.627 102.341Z" fill="#101840"/>
<path d="M139.583 141.332C140.483 140.835 141.382 140.809 141.594 141.278C141.806 141.746 141.247 142.543 140.346 143.04C139.446 143.537 138.547 143.563 138.335 143.094C138.122 142.615 138.683 141.829 139.583 141.332Z" fill="#101840"/>
<path d="M194.373 85.9581C194.883 85.0575 195.634 84.5806 196.071 84.874C196.497 85.1681 196.431 86.1368 195.92 87.0268C195.41 87.9275 194.658 88.4043 194.221 88.1109C193.795 87.8168 193.862 86.8588 194.373 85.9581Z" fill="#101840"/>
<path d="M155.952 157.027C156.462 156.126 157.214 155.649 157.65 155.943C158.076 156.237 158.01 157.205 157.499 158.095C156.989 158.996 156.237 159.473 155.801 159.18C155.375 158.885 155.442 157.927 155.952 157.027Z" fill="#101840"/>
<path d="M171.477 120.998L162.207 106.118C162.026 105.833 162.221 105.456 162.562 105.434L164.577 105.305C164.968 105.28 165.145 104.797 164.858 104.53L153.838 94.1752C153.504 93.8602 152.965 94.1976 153.1 94.6375L157.586 108.888C157.692 109.228 158.134 109.312 158.363 109.034L159.881 107.17C160.068 106.94 160.422 106.951 160.594 107.192L170.73 121.494C170.872 121.693 171.144 121.743 171.348 121.606C171.547 121.47 171.603 121.203 171.477 120.998Z" fill="#101840"/>
<path d="M174.084 122.403L191.898 120.677C192.295 120.645 192.575 121.045 192.416 121.409L191.469 123.569C191.286 123.986 191.687 124.424 192.122 124.272L208.749 118.418C209.261 118.241 209.193 117.5 208.664 117.41L191.502 114.405C191.092 114.333 190.765 114.746 190.933 115.128L192.047 117.698C192.185 118.017 191.979 118.376 191.635 118.425L173.971 121.357C173.692 121.394 173.493 121.656 173.524 121.935C173.555 122.221 173.804 122.427 174.084 122.403Z" fill="#101840"/>
<path d="M177.411 120.854C177.552 123.052 175.884 124.949 173.686 125.09C171.488 125.231 169.591 123.563 169.45 121.365C169.309 119.167 170.976 117.27 173.175 117.129C175.384 116.987 177.27 118.656 177.411 120.854Z" fill="#3357C6"/>
<path d="M416.883 180.376C432.448 180.376 445.067 167.757 445.067 152.192C445.067 136.626 432.448 124.007 416.883 124.007C401.317 124.007 388.698 136.626 388.698 152.192C388.698 167.757 401.317 180.376 416.883 180.376Z" fill="#3357C6"/>
<path d="M416.883 179.434C431.928 179.434 444.125 167.237 444.125 152.192C444.125 137.146 431.928 124.949 416.883 124.949C401.837 124.949 389.64 137.146 389.64 152.192C389.64 167.237 401.837 179.434 416.883 179.434Z" fill="#3357C6"/>
<path d="M433.771 136.445C442.697 145.372 442.697 159.844 433.771 168.771C424.844 177.697 410.372 177.697 401.445 168.771C392.519 159.844 392.519 145.372 401.445 136.445C410.372 127.519 424.844 127.519 433.771 136.445Z" fill="white" stroke="#101840" stroke-width="0.399685"/>
<path d="M419.917 169.756L419.263 167.337C416.712 167.925 414.058 168.004 412.07 167.703C411.363 167.598 410.84 166.97 410.84 166.264V163.845C410.84 162.955 411.625 162.288 412.501 162.406C414.463 162.668 416.791 162.654 419.132 162.027C421.565 161.373 423.147 160.052 422.689 158.365C422.271 156.835 420.623 156.311 417 156.324C411.821 156.311 407.793 155.147 406.642 150.91C405.609 147.078 407.61 143.39 412.266 141.284L411.612 138.865C411.403 138.08 411.86 137.282 412.645 137.073L414.071 136.681C414.855 136.471 415.653 136.929 415.862 137.714L416.451 139.885C418.818 139.349 420.623 139.283 422.101 139.388C422.859 139.44 423.435 140.081 423.435 140.839V143.076C423.435 143.939 422.689 144.619 421.839 144.528C420.466 144.397 418.583 144.384 416.294 144.998C413.404 145.783 412.907 147.196 413.194 148.268C413.547 149.589 415.522 150.021 419.59 150.164C425.384 150.321 428.209 151.943 429.294 155.932C430.288 159.594 428.47 163.635 423.409 165.885L424.141 168.592C424.35 169.377 423.893 170.175 423.108 170.384L421.682 170.776C420.924 170.986 420.126 170.528 419.917 169.756Z" fill="#3357C6"/>
<path d="M453.735 193.702C464.634 198.25 477.155 193.101 481.703 182.202C486.25 171.303 481.101 158.781 470.202 154.234C459.303 149.686 446.781 154.835 442.234 165.734C437.686 176.634 442.835 189.155 453.735 193.702Z" fill="#3357C6"/>
<path d="M454.006 193.053C464.546 197.45 476.655 192.471 481.053 181.93C485.45 171.39 480.471 159.281 469.931 154.883C459.39 150.486 447.281 155.465 442.884 166.006C438.486 176.546 443.466 188.655 454.006 193.053Z" fill="#3357C6"/>
<path d="M469.177 158.588C477.952 162.359 482.008 172.53 478.237 181.305C474.466 190.08 464.295 194.136 455.52 190.365C446.745 186.594 442.689 176.423 446.46 167.648C450.231 158.873 460.402 154.816 469.177 158.588Z" fill="white" stroke="black" stroke-width="0.403205"/>
<path d="M458.967 187.148L459.21 185.264C457.25 184.927 455.367 184.204 454.064 183.42C453.595 183.141 453.421 182.556 453.632 182.049L454.342 180.349C454.602 179.726 455.351 179.484 455.931 179.82C457.228 180.57 458.857 181.25 460.689 181.492C462.583 181.739 464.078 181.286 464.251 179.968C464.403 178.778 463.407 177.934 460.87 176.875C457.251 175.355 454.758 173.364 455.198 170.056C455.589 167.064 458.069 165.078 461.943 164.959L462.19 163.066C462.265 162.46 462.828 162.037 463.435 162.112L464.543 162.261C465.149 162.336 465.572 162.899 465.497 163.505L465.272 165.198C467.083 165.515 468.366 165.998 469.369 166.5C469.888 166.759 470.099 167.38 469.876 167.914L469.223 169.48C468.97 170.086 468.257 170.342 467.678 170.027C466.753 169.537 465.44 168.979 463.659 168.737C461.408 168.446 460.649 169.29 460.542 170.123C460.405 171.152 461.667 172.034 464.466 173.317C468.48 175.117 469.981 177.081 469.58 180.196C469.201 183.058 466.751 185.348 462.551 185.446L462.276 187.557C462.201 188.163 461.638 188.587 461.032 188.512L459.923 188.363C459.315 188.318 458.879 187.76 458.967 187.148Z" fill="#3357C6"/>
<path d="M333.563 255.194C347.015 255.194 357.92 244.288 357.92 230.836C357.92 217.384 347.015 206.479 333.563 206.479C320.11 206.479 309.205 217.384 309.205 230.836C309.205 244.288 320.11 255.194 333.563 255.194Z" fill="#3357C6"/>
<path d="M333.563 254.383C346.567 254.383 357.11 243.841 357.11 230.836C357.11 217.832 346.567 207.289 333.563 207.289C320.558 207.289 310.016 217.832 310.016 230.836C310.016 243.841 320.558 254.383 333.563 254.383Z" fill="#3357C6"/>
<path d="M348.137 217.244C355.84 224.946 355.84 237.435 348.137 245.137C340.435 252.84 327.946 252.84 320.244 245.137C312.541 237.435 312.541 224.946 320.244 217.244C327.946 209.541 340.435 209.541 348.137 217.244Z" fill="white" stroke="#101840" stroke-width="0.420226"/>
<path d="M336.187 246.003L335.623 243.915C333.411 244.423 331.117 244.492 329.4 244.231C328.782 244.134 328.342 243.599 328.342 242.98V240.892C328.342 240.123 329.015 239.546 329.785 239.642C331.474 239.862 333.494 239.862 335.513 239.312C337.615 238.749 338.989 237.609 338.591 236.139C338.233 234.82 336.805 234.367 333.672 234.381C329.194 234.367 325.704 233.364 324.715 229.696C323.822 226.385 325.553 223.198 329.579 221.384L329.015 219.296C328.837 218.623 329.235 217.922 329.908 217.744L331.145 217.414C331.818 217.235 332.518 217.634 332.697 218.307L333.205 220.189C335.252 219.722 336.805 219.667 338.082 219.763C338.742 219.804 339.236 220.368 339.236 221.027V222.964C339.236 223.706 338.591 224.297 337.849 224.214C336.667 224.104 335.033 224.091 333.054 224.627C330.568 225.3 330.128 226.522 330.375 227.457C330.691 228.597 332.395 228.968 335.912 229.091C340.912 229.229 343.358 230.63 344.306 234.078C345.171 237.252 343.591 240.741 339.223 242.678L339.855 245.014C340.033 245.687 339.635 246.388 338.962 246.566L337.725 246.896C337.052 247.074 336.365 246.676 336.187 246.003Z" fill="#3357C6"/>
<path d="M364.778 206.666C373.455 206.666 380.489 199.632 380.489 190.955C380.489 182.278 373.455 175.244 364.778 175.244C356.101 175.244 349.067 182.278 349.067 190.955C349.067 199.632 356.101 206.666 364.778 206.666Z" fill="#3357C6"/>
<path d="M364.778 206.143C373.166 206.143 379.966 199.343 379.966 190.955C379.966 182.567 373.166 175.767 364.778 175.767C356.39 175.767 349.59 182.567 349.59 190.955C349.59 199.343 356.39 206.143 364.778 206.143Z" fill="#3357C6"/>
<path d="M374.118 182.248C379.053 187.183 379.053 195.184 374.118 200.118C369.184 205.053 361.183 205.053 356.248 200.118C351.313 195.184 351.313 187.183 356.248 182.248C361.183 177.313 369.184 177.313 374.118 182.248Z" fill="white" stroke="#101840" stroke-width="0.442586"/>
<path d="M366.471 200.737L366.107 199.391C364.681 199.718 363.201 199.763 362.093 199.594C361.694 199.532 361.411 199.187 361.411 198.788V197.441C361.411 196.945 361.845 196.573 362.341 196.635C363.431 196.776 364.734 196.776 366.036 196.422C367.392 196.059 368.278 195.323 368.021 194.375C367.791 193.524 366.869 193.232 364.849 193.241C361.96 193.232 359.71 192.585 359.072 190.219C358.496 188.084 359.612 186.028 362.208 184.858L361.845 183.511C361.73 183.077 361.987 182.625 362.421 182.51L363.219 182.297C363.653 182.182 364.105 182.439 364.22 182.873L364.548 184.087C365.868 183.786 366.869 183.75 367.693 183.813C368.119 183.839 368.438 184.202 368.438 184.628V185.877C368.438 186.356 368.021 186.737 367.543 186.684C366.781 186.613 365.726 186.604 364.45 186.949C362.846 187.384 362.563 188.172 362.722 188.775C362.926 189.51 364.025 189.75 366.293 189.829C369.519 189.918 371.096 190.822 371.708 193.046C372.266 195.093 371.247 197.344 368.429 198.593L368.837 200.099C368.952 200.534 368.695 200.986 368.261 201.101L367.463 201.313C367.029 201.429 366.586 201.172 366.471 200.737Z" fill="#3357C6"/>
<path d="M550.198 217.58C561.719 213.132 567.453 200.186 563.005 188.665C558.557 177.144 545.611 171.41 534.09 175.858C522.569 180.306 516.835 193.252 521.283 204.773C525.732 216.294 538.677 222.028 550.198 217.58Z" fill="#EBEFFA"/>
<path d="M549.93 216.886C561.068 212.586 566.611 200.071 562.311 188.933C558.011 177.796 545.496 172.253 534.359 176.553C523.221 180.853 517.678 193.367 521.978 204.505C526.278 215.643 538.793 221.186 549.93 216.886Z" fill="#EBEFFA"/>
<path d="M559.531 204.226C563.624 194.985 559.451 184.176 550.21 180.083C540.969 175.99 530.16 180.163 526.067 189.404C521.974 198.645 526.147 209.454 535.388 213.547C544.629 217.64 555.438 213.467 559.531 204.226Z" fill="white"/>
<path d="M549.406 208.841L548.234 207.239C546.507 208.405 544.565 209.223 543.008 209.567C542.447 209.689 541.893 209.376 541.689 208.846L540.998 207.058C540.744 206.399 541.13 205.682 541.82 205.51C543.34 205.14 545.07 204.472 546.618 203.333C548.232 202.156 549.031 200.725 548.204 199.598C547.462 198.587 546.088 198.671 543.41 199.718C539.57 201.187 536.25 201.482 534.19 198.668C532.331 196.128 532.759 192.826 535.607 189.942L534.434 188.339C534.059 187.822 534.168 187.09 534.686 186.715L535.635 186.023C536.153 185.648 536.885 185.757 537.26 186.275L538.318 187.719C539.917 186.642 541.228 186.081 542.354 185.741C542.932 185.559 543.542 185.877 543.76 186.442L544.401 188.101C544.646 188.737 544.288 189.456 543.626 189.631C542.577 189.927 541.173 190.456 539.656 191.569C537.749 192.968 537.776 194.16 538.297 194.879C538.945 195.751 540.526 195.505 543.579 194.448C547.907 192.912 550.465 193.304 552.417 195.943C554.208 198.375 554.008 201.886 550.907 204.99L552.221 206.781C552.596 207.298 552.487 208.03 551.969 208.406L551.019 209.097C550.502 209.472 549.782 209.358 549.406 208.841Z" fill="#EBEFFA"/>
<path d="M528.721 141.52C540.911 149.298 557.098 145.722 564.876 133.532C572.655 121.342 569.078 105.155 556.888 97.3764C544.699 89.5982 528.511 93.1745 520.733 105.364C512.955 117.554 516.531 133.742 528.721 141.52Z" fill="#EBEFFA"/>
<path d="M529.19 140.785C540.974 148.305 556.622 144.847 564.142 133.063C571.661 121.279 568.204 105.63 556.42 98.111C544.636 90.5915 528.987 94.0488 521.468 105.833C513.948 117.617 517.405 133.266 529.19 140.785Z" fill="#EBEFFA"/>
<path d="M547.791 141.055C559.346 138.502 566.644 127.065 564.091 115.51C561.538 103.955 550.101 96.6568 538.546 99.2097C526.991 101.763 519.693 113.199 522.246 124.755C524.799 136.31 536.236 143.608 547.791 141.055Z" fill="white"/>
<path d="M536.413 134.709L537.11 132.491C534.812 131.673 532.693 130.408 531.288 129.179C530.783 128.734 530.695 127.994 531.052 127.434L532.259 125.542C532.704 124.845 533.648 124.711 534.289 125.243C535.694 126.42 537.523 127.587 539.671 128.257C541.902 128.962 543.806 128.723 544.295 127.161C544.734 125.759 543.701 124.522 540.855 122.723C536.804 120.121 534.222 117.195 535.447 113.299C536.552 109.783 539.964 107.896 544.66 108.58L545.357 106.362C545.584 105.649 546.35 105.244 547.063 105.471L548.374 105.888C549.088 106.115 549.492 106.881 549.265 107.594L548.637 109.594C550.762 110.354 552.201 111.202 553.303 112.028C553.876 112.446 553.999 113.243 553.618 113.84L552.498 115.596C552.069 116.268 551.142 116.43 550.517 115.926C549.51 115.143 548.037 114.186 545.934 113.527C543.292 112.7 542.187 113.553 541.871 114.543C541.498 115.759 542.827 117.08 545.942 119.225C550.394 122.241 551.8 124.925 550.665 128.598C549.614 131.974 546.165 134.222 541.086 133.452L540.308 135.933C540.081 136.647 539.315 137.051 538.602 136.824L537.291 136.408C536.577 136.18 536.185 135.422 536.413 134.709Z" fill="#EBEFFA"/>
<path d="M349.434 325.996C367.223 325.996 381.643 311.576 381.643 293.788C381.643 276 367.223 261.58 349.434 261.58C331.646 261.58 317.226 276 317.226 293.788C317.226 311.576 331.646 325.996 349.434 325.996Z" fill="#3357C6"/>
<path d="M349.434 324.92C366.628 324.92 380.567 310.981 380.567 293.788C380.567 276.594 366.628 262.656 349.434 262.656C332.241 262.656 318.302 276.594 318.302 293.788C318.302 310.981 332.241 324.92 349.434 324.92Z" fill="#3357C6"/>
<path d="M368.745 275.782C378.952 285.989 378.952 302.538 368.745 312.745C358.538 322.952 341.989 322.952 331.782 312.745C321.575 302.538 321.575 285.989 331.782 275.782C341.989 265.575 358.538 265.575 368.745 275.782Z" fill="white" stroke="#101840" stroke-width="0.42546"/>
<path d="M352.902 313.86L352.155 311.095C349.24 311.767 346.206 311.857 343.934 311.513C343.127 311.394 342.53 310.676 342.53 309.869V307.104C342.53 306.088 343.426 305.326 344.428 305.46C346.67 305.759 349.33 305.744 352.005 305.027C354.785 304.28 356.594 302.77 356.07 300.842C355.592 299.093 353.709 298.496 349.569 298.511C343.65 298.496 339.047 297.165 337.732 292.323C336.551 287.944 338.838 283.729 344.159 281.323L343.411 278.558C343.172 277.661 343.695 276.749 344.592 276.51L346.221 276.062C347.118 275.823 348.03 276.346 348.269 277.243L348.941 279.724C351.646 279.111 353.709 279.036 355.398 279.156C356.265 279.216 356.922 279.948 356.922 280.815V283.37C356.922 284.357 356.07 285.134 355.099 285.029C353.53 284.88 351.377 284.865 348.762 285.567C345.459 286.464 344.891 288.078 345.22 289.304C345.623 290.813 347.88 291.307 352.528 291.471C359.149 291.65 362.378 293.504 363.618 298.062C364.754 302.247 362.676 306.865 356.892 309.436L357.729 312.53C357.969 313.426 357.445 314.338 356.549 314.577L354.92 315.026C354.053 315.265 353.141 314.742 352.902 313.86Z" fill="#3357C6"/>
<path d="M58.7306 263.911C55.3658 264.624 52.0516 262.492 51.3383 259.128L40.3032 207.383C39.6959 204.521 41.4259 201.695 44.26 200.931L118.484 181.103C120.682 180.508 122.952 181.882 123.455 184.091L137.199 243.192C137.696 245.279 136.359 247.376 134.254 247.81L58.7306 263.911Z" fill="#C7D2EE"/>
<path d="M52.8961 260.744C51.8265 260.973 50.7818 260.214 50.7093 259.117C50.1518 251.908 48.6952 227.111 42.9834 207.4C42.8526 206.949 42.8349 206.326 43.4016 205.759C44.2983 205.494 117.78 184.925 117.78 184.925C118.798 184.655 119.85 185.235 120.148 186.259C122.44 194.611 131.823 228.998 133.152 241.689C133.233 242.457 132.725 243.164 131.968 243.337L52.8961 260.744Z" fill="#3357C6"/>
<path d="M54.5968 259.505C53.5561 259.739 52.5689 258.993 52.4905 257.924C51.9607 250.93 49.8288 226.919 44.2245 207.898C43.954 207.03 44.4747 206.116 45.3366 205.875L117.052 186.547C118.041 186.272 119.058 186.874 119.311 187.828C121.518 195.862 130.536 228.971 131.846 241.177C131.933 241.917 131.431 242.594 130.702 242.773L54.5968 259.505Z" fill="url(#paint0_linear_959_41514)"/>
<path d="M60.3376 204.522L59.8151 204.64C59.2447 204.77 58.6868 204.405 58.5781 203.84L56.9668 196.238C56.8699 195.833 57.0514 195.395 57.3967 195.15L58.4017 194.454C59.0353 194.019 59.9322 194.387 60.0392 195.179L61.1897 203.364C61.2161 203.89 60.8601 204.405 60.3376 204.522Z" fill="#3357C6"/>
<path d="M70.8695 201.664L70.347 201.782C69.7766 201.912 69.2187 201.547 69.11 200.981L67.4987 193.38C67.4018 192.975 67.5833 192.537 67.9286 192.292L68.9336 191.595C69.5717 191.14 70.4642 191.529 70.5712 192.321L71.7216 200.506C71.7697 201.036 71.4137 201.551 70.8695 201.664Z" fill="#3357C6"/>
<path d="M85.0802 198.643L84.5577 198.76C83.9873 198.891 83.4293 198.526 83.3206 197.96L81.7093 190.358C81.6124 189.953 81.794 189.516 82.1392 189.271L83.1443 188.574C83.7823 188.118 84.6748 188.507 84.7818 189.299L85.9322 197.484C85.9804 198.015 85.6244 198.529 85.0802 198.643Z" fill="#3357C6"/>
<path d="M99.1358 194.842L98.6133 194.96C98.0429 195.09 97.4849 194.725 97.3762 194.159L95.7649 186.558C95.668 186.153 95.8496 185.715 96.1948 185.47L97.1999 184.773C97.8334 184.339 98.7304 184.707 98.8374 185.499L99.9878 193.683C100.036 194.214 99.68 194.729 99.1358 194.842Z" fill="#3357C6"/>
<path d="M89.4448 208.432L90.5538 213.653C90.721 214.439 91.5135 214.965 92.3058 214.769L97.6429 213.534C98.4291 213.367 98.9198 212.597 98.7527 211.811L97.5824 206.307C97.3924 205.486 96.565 204.983 95.7668 205.208L90.4682 206.691C89.7564 206.934 89.3005 207.681 89.4448 208.432Z" fill="white"/>
<path d="M72.3681 219.431L77.7051 218.196C78.4914 218.029 78.9821 217.259 78.8149 216.473L77.8059 211.784C77.6159 210.963 76.7885 210.46 75.9902 210.685L70.6977 212.14C69.963 212.348 69.5071 213.095 69.6515 213.846L70.5873 218.309C70.7773 219.13 71.547 219.621 72.3681 219.431Z" fill="white"/>
<path d="M82.5032 241.529L77.4267 242.668C76.5768 242.852 76.0392 243.702 76.2233 244.552L77.2432 249.333C77.4272 250.183 78.2426 250.743 79.0925 250.559L84.2255 249.583C85.1043 249.405 85.6706 248.56 85.4926 247.682L84.445 242.744C84.2033 241.882 83.3591 241.316 82.5032 241.529Z" fill="white"/>
<path d="M75.3763 249.636L74.3961 244.954C74.2121 244.104 73.3619 243.566 72.512 243.75L67.3718 244.906C66.5219 245.09 66.0192 245.917 66.1744 246.761L67.133 251.259C67.317 252.109 68.1095 252.635 68.9534 252.479L74.1213 251.48C75.0229 251.337 75.5892 250.492 75.3763 249.636Z" fill="white"/>
<path d="M70.8962 228.534L70.0711 224.695C69.8703 223.782 68.9396 223.197 68.0261 223.398L63.1224 224.573C62.2377 224.78 61.6594 225.682 61.8663 226.566L62.6348 230.243C62.8357 231.157 63.7087 231.729 64.6162 231.557L69.5416 230.567C70.4839 230.372 71.091 229.476 70.8962 228.534Z" fill="white"/>
<path d="M73.2644 239.698L72.016 233.847C71.832 232.997 71.0106 232.466 70.1607 232.65L65.1081 233.673C64.1946 233.874 63.5874 234.77 63.7883 235.684L65.0536 241.598C65.2376 242.448 66.0878 242.986 66.9377 242.802L72.061 241.582C72.9229 241.341 73.4544 240.519 73.2644 239.698Z" fill="white"/>
<path d="M82.3423 217.146L87.6794 215.911C88.4657 215.744 88.9564 214.974 88.7892 214.188L87.7139 209.095C87.5239 208.273 86.6966 207.771 85.8983 207.996L80.6058 209.45C79.8711 209.658 79.4152 210.405 79.5596 211.157L80.5903 216.03C80.7575 216.817 81.5561 217.313 82.3423 217.146Z" fill="white"/>
<path d="M83.2567 237.327L82.0804 231.852C81.8964 231.002 81.0522 230.435 80.2023 230.619L75.0861 231.66C74.2073 231.838 73.6698 232.688 73.8478 233.567L75.0458 239.227C75.2238 240.106 76.1028 240.649 76.9875 240.442L82.0761 239.246C82.9092 238.998 83.4118 238.171 83.2567 237.327Z" fill="white"/>
<path d="M88.45 218.566L82.6328 219.942C82.0026 220.082 81.5995 220.719 81.733 221.378L82.8588 226.663C82.9923 227.322 83.6299 227.725 84.2889 227.591L90.1567 226.406C90.8157 226.273 91.2476 225.641 91.0853 224.976L89.909 219.501C89.7815 218.813 89.1151 218.404 88.45 218.566Z" fill="white"/>
<path d="M91.7805 219.319L92.839 224.349C93.0002 225.164 93.8215 225.695 94.6366 225.534L99.9089 224.466C100.724 224.305 101.284 223.49 101.094 222.668L99.9794 217.477C99.7954 216.627 98.968 216.124 98.147 216.314L92.9311 217.544C92.116 217.705 91.5905 218.498 91.7805 219.319Z" fill="white"/>
<path d="M74.2185 229.616L80.0862 228.431C80.7452 228.297 81.1772 227.666 81.0148 227.001L79.9167 221.872C79.7832 221.213 79.1168 220.804 78.4577 220.938L72.6405 222.314C72.0103 222.453 71.6072 223.091 71.7407 223.75L72.7883 228.687C72.9566 229.323 73.5882 229.755 74.2185 229.616Z" fill="white"/>
<path d="M90.2498 228.56L85.1336 229.601C84.2549 229.779 83.7173 230.629 83.8954 231.508L85.0439 236.827C85.222 237.705 86.101 238.249 86.9857 238.042L92.0742 236.846C92.9241 236.662 93.4617 235.811 93.2776 234.961L92.1855 229.804C91.9439 228.943 91.0937 228.405 90.2498 228.56Z" fill="white"/>
<path d="M100.476 226.508L95.0132 227.627C94.2329 227.765 93.7422 228.535 93.9094 229.321L95.052 234.669C95.2192 235.455 95.9889 235.946 96.7523 235.744L102.188 234.469C102.945 234.296 103.401 233.549 103.257 232.798L102.142 227.606C101.969 226.848 101.228 226.364 100.476 226.508Z" fill="white"/>
<path d="M63.0997 221.502L67.1703 220.575C68.2459 220.318 68.9177 219.255 68.6892 218.185L67.976 214.82C67.7643 213.815 66.7244 213.177 65.7353 213.453L61.2698 214.689C60.2519 214.958 59.6436 216.004 59.8553 217.01L60.4458 219.808C60.6792 220.999 61.874 221.758 63.0997 221.502Z" fill="white"/>
<path d="M64.3979 247.354C64.1971 246.44 63.2953 245.862 62.3817 246.063L60.6123 246.476C59.2595 246.766 58.3847 247.937 58.6073 249.036L59.3156 252.279C59.567 253.384 60.8086 254.063 62.1495 253.83L64.057 253.475C64.9297 253.326 65.4672 252.476 65.2892 251.597L64.3979 247.354Z" fill="white"/>
<path d="M120.89 232.857L117.421 233.639C116.571 233.823 116.034 234.673 116.218 235.523L117.511 241.593C117.695 242.443 118.51 243.003 119.36 242.819L122.834 242.159C124.21 241.904 125.177 240.722 124.937 239.56L123.829 234.34C123.577 233.235 122.278 232.544 120.89 232.857Z" fill="white"/>
<path d="M60.2765 244.332L62.0111 243.942C62.8958 243.735 63.4741 242.833 63.2672 241.948L61.9851 235.97C61.7843 235.057 60.9113 234.484 60.0037 234.656L58.2463 235.012C56.8646 235.296 55.9323 236.455 56.1776 237.588L57.2866 242.809C57.5547 243.977 58.8888 244.645 60.2765 244.332Z" fill="white"/>
<path d="M57.7485 232.925L59.9453 232.48C60.6331 232.352 61.0771 231.663 60.9496 230.975L60.0415 226.668C59.8851 225.974 59.1958 225.53 58.502 225.687L56.3221 226.195C54.992 226.52 54.1292 227.633 54.3746 228.766L54.9435 231.38C55.0964 232.524 56.3956 233.215 57.7485 232.925Z" fill="white"/>
<path d="M113.808 200.271L110.366 201.209C109.603 201.411 109.106 202.21 109.273 202.996L110.549 209.003C110.739 209.824 111.56 210.355 112.382 210.165L115.978 209.35C117.302 209.054 118.206 207.889 117.954 206.785L116.896 201.755C116.634 200.558 115.213 199.872 113.808 200.271Z" fill="white"/>
<path d="M92.5062 239.25L87.4297 240.389C86.5798 240.573 86.0423 241.423 86.2263 242.273L87.3304 247.372C87.5144 248.222 88.3297 248.783 89.1796 248.599L94.3127 247.622C95.1914 247.444 95.7577 246.6 95.5797 245.721L94.454 240.437C94.2352 239.61 93.3561 239.066 92.5062 239.25Z" fill="white"/>
<path d="M116.403 211.933L112.864 212.761C112.072 212.957 111.546 213.749 111.736 214.57L112.951 220.294C113.112 221.109 113.934 221.641 114.749 221.479L118.327 220.751C119.709 220.467 120.641 219.308 120.396 218.175L119.393 213.457C119.125 212.289 117.797 211.592 116.403 211.933Z" fill="white"/>
<path d="M118.831 222.809L115.125 223.572C114.339 223.739 113.854 224.48 114.021 225.266L115.024 229.984C115.192 230.77 115.961 231.261 116.725 231.059L120.426 230.175C121.756 229.85 122.619 228.737 122.402 227.61L121.694 224.366C121.448 223.233 120.178 222.548 118.831 222.809Z" fill="white"/>
<path d="M103.957 227.262L105.044 232.298C105.211 233.084 105.981 233.575 106.745 233.373L112.18 232.098C112.937 231.925 113.393 231.178 113.249 230.426L112.212 225.582C112.039 224.824 111.298 224.339 110.547 224.484L105.084 225.602C104.303 225.741 103.784 226.504 103.957 227.262Z" fill="white"/>
<path d="M112.5 234.75L107.424 235.889C106.574 236.073 106.036 236.923 106.221 237.773L107.458 243.531C107.642 244.381 108.457 244.941 109.307 244.757L114.44 243.781C115.319 243.603 115.885 242.758 115.707 241.88L114.442 235.965C114.229 235.109 113.385 234.543 112.5 234.75Z" fill="white"/>
<path d="M55.7447 223.189L57.8611 222.697C58.5549 222.541 58.964 221.875 58.8365 221.187L57.9393 216.972C57.7889 216.249 57.0648 215.828 56.365 216.013L54.1322 216.631C52.8598 216.968 52.0547 218.093 52.2832 219.163L52.8125 221.678C53.029 222.805 54.357 223.502 55.7447 223.189Z" fill="white"/>
<path d="M102.503 237L97.4905 238.122C96.577 238.323 96.0275 239.231 96.2055 240.109L97.3481 245.457C97.5321 246.307 98.3475 246.867 99.1974 246.683L104.33 245.707C105.209 245.529 105.775 244.684 105.597 243.806L104.416 238.209C104.232 237.359 103.353 236.816 102.503 237Z" fill="white"/>
<path d="M99.3589 205.714L100.54 211.311C100.73 212.132 101.551 212.663 102.372 212.473L107.611 211.278C108.432 211.088 108.929 210.289 108.768 209.474L107.542 203.658C107.358 202.808 106.508 202.271 105.646 202.512L100.452 203.927C99.6596 204.123 99.1917 204.928 99.3589 205.714Z" fill="white"/>
<path d="M101.744 216.942L102.881 222.318C103.042 223.134 103.863 223.665 104.678 223.504L109.951 222.436C110.766 222.275 111.326 221.459 111.136 220.638L109.949 215.071C109.765 214.221 108.938 213.718 108.116 213.908L102.901 215.138C102.08 215.328 101.583 216.127 101.744 216.942Z" fill="white"/>
<path d="M52.5554 212.215L53.2235 213.917C53.4387 214.473 54.0078 214.772 54.5744 214.649L54.6669 214.638C55.2971 214.499 55.729 213.867 55.5895 213.237L55.2166 211.416C55.0603 210.722 54.3362 210.301 53.6532 210.55L53.2943 210.686C52.6173 210.906 52.3234 211.596 52.5554 212.215Z" fill="#3357C6"/>
<path d="M60.6255 209.835L61.2937 211.537C61.5088 212.093 62.0779 212.392 62.6445 212.269L62.737 212.258C63.3672 212.119 63.7992 211.487 63.6596 210.857L63.2868 209.036C63.1304 208.342 62.4063 207.921 61.7233 208.17L61.3644 208.305C60.6874 208.525 60.3936 209.216 60.6255 209.835Z" fill="#3357C6"/>
<path d="M70.7091 207.603L71.3772 209.305C71.5924 209.861 72.1615 210.159 72.7281 210.037L72.8206 210.026C73.4508 209.886 73.8827 209.255 73.7432 208.625L73.3704 206.804C73.214 206.11 72.4899 205.689 71.8069 205.937L71.448 206.073C70.7998 206.299 70.4772 206.984 70.7091 207.603Z" fill="#3357C6"/>
<path d="M80.4155 204.872L81.0837 206.574C81.2988 207.13 81.868 207.428 82.4346 207.306L82.527 207.295C83.1572 207.155 83.5892 206.524 83.4497 205.893L83.0768 204.072C82.9204 203.378 82.1963 202.957 81.5133 203.206L81.1544 203.342C80.5122 203.539 80.1836 204.252 80.4155 204.872Z" fill="#3357C6"/>
<path d="M90.1924 201.223L90.8605 202.925C91.0756 203.481 91.6448 203.779 92.2114 203.657L92.3038 203.646C92.9341 203.506 93.366 202.875 93.2265 202.245L92.8536 200.424C92.6973 199.73 91.9732 199.309 91.2902 199.557L90.9313 199.693C90.2603 199.884 89.9376 200.569 90.1924 201.223Z" fill="#3357C6"/>
<path d="M100.923 198.915L101.591 200.617C101.806 201.173 102.375 201.472 102.942 201.349L103.034 201.338C103.665 201.199 104.097 200.567 103.957 199.937L103.584 198.116C103.428 197.422 102.704 197.001 102.021 197.249L101.662 197.385C100.985 197.605 100.662 198.29 100.923 198.915Z" fill="#3357C6"/>
<path d="M109.882 196.599L110.55 198.301C110.765 198.857 111.334 199.156 111.901 199.033L111.993 199.022C112.623 198.883 113.055 198.251 112.916 197.621L112.543 195.8C112.387 195.106 111.662 194.685 110.979 194.934L110.621 195.069C109.944 195.289 109.621 195.974 109.882 196.599Z" fill="#3357C6"/>
<path d="M88.3504 224.828C88.0534 223.654 87.8033 222.4 87.0777 221.407C86.8435 221.088 86.3682 221.35 86.3311 221.673C86.1959 222.757 86.5397 223.851 86.7742 224.892C86.88 225.395 87.0663 225.944 87.2178 226.517C86.2544 224.934 84.9066 223.03 82.9352 222.68C80.935 222.325 79.0326 223.522 77.494 224.705C73.9115 227.478 71.6297 231.512 68.3967 234.628C66.4718 236.512 63.4856 238.296 61.3356 235.625C59.8318 233.749 59.6529 230.705 59.8897 228.41C60.3682 223.94 62.8061 219.878 66.3418 217.186C66.5914 216.998 66.2947 216.545 66.0163 216.728C62.4084 219.044 60.0136 222.754 59.1448 226.932C58.4487 230.425 58.3754 236.272 62.2237 238.004C66.4287 239.9 70.3056 234.844 72.5952 232.074C74.2091 230.095 75.8002 228.081 77.7408 226.41C78.8389 225.466 80.1687 224.42 81.6308 224.183C83.6536 223.852 84.8909 225.853 85.7511 227.354C86.1956 228.108 87.2315 227.752 87.3693 227.089C87.4306 227.373 87.486 227.685 87.5185 227.962C85.9867 228.245 84.1928 227.331 82.7777 228.209C82.5689 228.346 82.5666 228.646 82.8199 228.729C84.3688 229.231 86.9034 229.908 88.4951 229.338C88.848 229.231 89.0808 228.978 89.1299 228.598C89.1966 227.409 88.6474 226.002 88.3504 224.828Z" fill="#3357C6"/>
<path d="M101.933 225.898C101.69 225.834 101.451 225.836 101.202 225.879C101.202 225.879 101.202 225.879 101.161 225.868C100.963 225.881 100.729 225.95 100.479 225.992C99.2584 226.191 97.6092 226.537 96.092 226.874C95.2674 227.047 94.5088 227.215 93.9846 227.316C93.5776 227.382 93.2346 227.617 93.0429 227.934C92.8618 228.211 92.7917 228.561 92.8791 228.887L94.1596 234.31C94.3475 235.16 95.2043 235.688 96.1398 235.588L102.684 234.818C103.604 234.692 104.258 233.933 104.177 233.089C103.918 230.532 103.658 228.148 103.154 226.933C102.973 226.388 102.51 226.006 101.933 225.898ZM102.7 227.095C103.159 228.233 103.43 230.577 103.7 233.094C103.749 233.648 103.291 234.155 102.671 234.209L96.1268 234.978C95.4556 235.061 94.8609 234.689 94.7051 234.128L93.4395 228.731C93.4011 228.548 93.4287 228.36 93.5374 228.194C93.6566 227.987 93.8867 227.853 94.1361 227.81C94.6858 227.695 95.4444 227.526 96.284 227.379C97.6179 227.08 99.1755 226.753 100.356 226.544C100.697 226.482 101.012 226.435 101.302 226.403C101.526 226.375 101.739 226.388 101.941 226.441C102.24 226.541 102.562 226.799 102.7 227.095Z" fill="#101840"/>
<path d="M94.0415 225.789C94.7673 225.365 95.1387 225.708 95.5627 226.434L97.9957 229.91C98.1987 230.253 98.9064 230.259 99.0384 229.91L103.55 218.941C103.788 218.399 104.588 218.569 104.565 219.158C104.592 222.428 100.659 235.4 98.7382 233.952C96.8179 232.503 96.4272 232.113 93.4277 227.852C93.124 227.072 93.3558 226.195 94.0415 225.789Z" fill="#3357C6"/>
<path opacity="0.1" d="M304.094 89.985H360.335C360.335 89.985 356.668 83.9235 346.601 86.1106C346.601 86.1106 344.674 77.7995 334.793 77.7995C326.217 77.7995 323.794 86.1106 323.794 86.1106C323.794 86.1106 317.517 81.5489 312.483 88.1728C312.483 88.1728 305.337 85.9856 304.094 89.985Z" fill="#3357C6"/>
<path opacity="0.1" d="M140 40H212C212 40 207.306 32.5385 194.418 35.2308C194.418 35.2308 191.951 25 179.302 25C168.323 25 165.22 35.2308 165.22 35.2308C165.22 35.2308 157.185 29.6154 150.74 37.7692C150.74 37.7692 141.591 35.0769 140 40Z" fill="#3357C6"/>
<path opacity="0.1" d="M380.648 63.4124H453.232C453.232 63.4124 448.5 55.4867 435.507 58.3465C435.507 58.3465 433.021 47.4793 420.269 47.4793C409.201 47.4793 406.073 58.3465 406.073 58.3465C406.073 58.3465 397.972 52.3818 391.476 61.0429C391.476 61.0429 382.252 58.1831 380.648 63.4124Z" fill="#3357C6"/>
<path opacity="0.1" d="M471 83H514C514 83 513.479 77.5282 504.424 79.5026C504.424 79.5026 502.691 72 493.804 72C486.091 72 483.911 79.5026 483.911 79.5026C481.566 77.7922 472.453 77.9875 471 83Z" fill="#3357C6"/>
<path opacity="0.1" d="M69 155H113C113 155 110.131 150.523 102.255 152.138C102.255 152.138 100.748 146 93.0177 146C86.3083 146 84.4121 152.138 84.4121 152.138C84.4121 152.138 79.5017 148.769 75.5635 153.662C75.5635 153.662 69.9724 152.046 69 155Z" fill="#3357C6"/>
<path opacity="0.1" d="M105.293 296.295C104.829 293.955 103.744 291.771 102.35 289.899L104.829 286.31L103.28 284.75L102.66 284.126L101.111 282.566L97.3933 285.218C95.3795 283.97 93.2108 283.034 90.8872 282.722L90.1127 278.509H87.944H87.0146H84.8459L84.0714 283.034C81.7478 283.502 79.5792 284.594 77.7203 285.998L74.1575 283.502L72.6084 285.062L71.9888 285.686L70.4398 287.246L73.0731 290.991C71.8339 293.019 70.9045 295.203 70.5947 297.544L66.4122 298.324V300.508V301.444V303.628L70.9045 304.408C71.3692 306.749 72.4535 308.933 73.8477 310.805L71.5241 314.082L73.0731 315.642L73.6928 316.266L75.2418 317.826L78.9595 315.174C80.9733 316.422 83.142 317.358 85.4656 317.67L86.0852 321.883H88.2539H89.1833H91.352L92.1265 317.358C94.4501 316.89 96.6187 315.798 98.4776 314.394L102.04 316.89L103.589 315.33L104.209 314.706L105.758 313.146L103.125 309.401C104.364 307.373 105.293 305.189 105.603 302.848L109.786 302.068V300.04V299.104V296.92L105.293 296.295ZM88.0989 310.493C82.5224 310.493 77.8752 305.969 77.8752 300.196C77.8752 294.579 82.3675 289.899 88.0989 289.899C93.8304 289.899 98.3227 294.423 98.3227 300.196C98.3227 305.813 93.8304 310.493 88.0989 310.493Z" fill="#3357C6"/>
<path opacity="0.1" d="M574.854 280.202C574.184 276.968 572.731 273.957 570.943 271.391L574.295 266.595L572.284 264.588L571.39 263.696L569.379 261.688L564.35 265.146C561.669 263.473 558.652 262.246 555.411 261.8L554.405 256H551.5H550.271H547.254L546.136 262.134C542.896 262.803 539.991 264.142 537.42 266.038L532.616 262.692L530.604 264.699L529.71 265.592L527.699 267.599L531.163 272.618C529.487 275.295 528.258 278.306 527.811 281.652L522 282.656V285.556V286.783V289.682L528.034 290.798C528.705 294.032 530.157 297.043 531.945 299.609L528.593 304.405L530.604 306.412L531.498 307.304L533.509 309.312L538.538 305.854C541.22 307.527 544.237 308.754 547.477 309.2L548.483 315H551.388H552.841H555.746L556.864 308.866C560.104 308.197 563.009 306.858 565.58 304.962L570.384 308.308L572.396 306.301L573.29 305.408L575.301 303.401L571.837 298.382C573.513 295.705 574.742 292.694 575.189 289.459L581 288.456V285.556V284.329V281.429L574.854 280.202ZM551.5 299.386C543.79 299.386 537.532 293.14 537.532 285.444C537.532 277.749 543.79 271.503 551.5 271.503C559.21 271.503 565.468 277.749 565.468 285.444C565.468 293.14 559.21 299.386 551.5 299.386Z" fill="#3357C6"/>
<path opacity="0.1" d="M272.688 52.9206C272.108 50.1248 270.852 47.5217 269.307 45.3043L272.205 41.1588L270.466 39.4234L269.693 38.6522L267.955 36.9168L263.608 39.9055C261.29 38.4594 258.682 37.3989 255.881 37.0132L255.011 32H252.5H251.437H248.83L247.864 37.3025C245.062 37.8809 242.551 39.0378 240.33 40.6767L236.176 37.7845L234.437 39.5198L233.665 40.2911L231.926 42.0265L234.92 46.3648C233.472 48.6786 232.409 51.2817 232.023 54.1739L227 55.0416V57.5482V58.6087V61.1153L232.216 62.0794C232.795 64.8752 234.051 67.4783 235.597 69.6956L232.699 73.8412L234.437 75.5766L235.21 76.3478L236.949 78.0832L241.295 75.0945C243.614 76.5406 246.222 77.6011 249.023 77.9868L249.892 83H252.403H253.659H256.17L257.136 77.6975C259.938 77.1191 262.449 75.9622 264.67 74.3232L268.824 77.2155L270.563 75.4801L271.335 74.7089L273.074 72.9735L270.08 68.6352C271.528 66.3214 272.591 63.7183 272.977 60.9225L278 60.0548V57.5482V56.4877V53.9811L272.688 52.9206ZM252.5 69.5028C245.835 69.5028 240.426 64.104 240.426 57.4518C240.426 50.7996 245.835 45.4008 252.5 45.4008C259.165 45.4008 264.574 50.7996 264.574 57.4518C264.574 64.104 259.165 69.5028 252.5 69.5028Z" fill="#3357C6"/>
<path opacity="0.1" d="M116.5 65.845C116.227 64.5293 115.636 63.3043 114.909 62.2609L116.273 60.31L115.455 59.4934L115.091 59.1304L114.273 58.3138L112.227 59.7202C111.136 59.0397 109.909 58.5406 108.591 58.3592L108.182 56H107H106.5H105.273L104.818 58.4953C103.5 58.7675 102.318 59.3119 101.273 60.0832L99.3182 58.7221L98.5 59.5388L98.1364 59.9017L97.3182 60.7183L98.7273 62.7599C98.0455 63.8488 97.5455 65.0737 97.3636 66.4348L95 66.8431V68.0227V68.5217V69.7013L97.4545 70.155C97.7273 71.4707 98.3182 72.6957 99.0455 73.7391L97.6818 75.69L98.5 76.5066L98.8636 76.8696L99.6818 77.6862L101.727 76.2798C102.818 76.9603 104.045 77.4594 105.364 77.6408L105.773 80H106.955H107.545H108.727L109.182 77.5047C110.5 77.2325 111.682 76.6881 112.727 75.9168L114.682 77.2779L115.5 76.4612L115.864 76.0983L116.682 75.2817L115.273 73.2401C115.955 72.1512 116.455 70.9263 116.636 69.6106L119 69.2023V68.0227V67.5236V66.344L116.5 65.845ZM107 73.6484C103.864 73.6484 101.318 71.1078 101.318 67.9773C101.318 64.8469 103.864 62.3062 107 62.3062C110.136 62.3062 112.682 64.8469 112.682 67.9773C112.682 71.1078 110.136 73.6484 107 73.6484Z" fill="#3357C6"/>
<defs>
<linearGradient id="paint0_linear_959_41514" x1="116.268" y1="122.138" x2="102.913" y2="170.464" gradientUnits="userSpaceOnUse">
<stop stop-color="#DAE3FE"/>
<stop offset="1" stop-color="#E9EFFD"/>
</linearGradient>
</defs>
</svg>
