<svg width="600" height="464" viewBox="0 0 600 464" fill="none" xmlns="http://www.w3.org/2000/svg">
<g clip-path="url(#clip0_952_40387)">
<path fill-rule="evenodd" clip-rule="evenodd" d="M39.5 144C61.989 98 100 89 145 79.4999C182 13.4998 297 0.499953 375.447 37.7121C460.5 37.7121 496 44.4997 545 79.4999C594 114.5 591 164.5 575.5 240.5C570.5 309.5 608.861 364.423 570 421.5C538 468.5 318.157 426.672 271.5 433.5C220.629 440.944 85.9654 464.5 47.5 409C9.03464 353.5 43.0455 311.5 39.5 272.5C35.9545 233.5 17.0111 190 39.5 144Z" fill="white"/>
<path opacity="0.1" d="M79 253H139C139 253 135.088 247.031 124.348 249.185C124.348 249.185 122.293 241 111.751 241C102.602 241 100.017 249.185 100.017 249.185C100.017 249.185 93.3204 244.692 87.9503 251.215C87.9503 251.215 80.326 249.123 79 253Z" fill="#3357C6"/>
<path opacity="0.1" d="M483 213H568C568 213 562.459 203.549 547.243 206.959C547.243 206.959 544.331 194 529.398 194C516.436 194 512.773 206.959 512.773 206.959C512.773 206.959 503.287 199.846 495.68 210.174C495.68 210.174 484.878 206.862 483 213Z" fill="#3357C6"/>
<path opacity="0.1" d="M479 146H551C551 146 546.306 138.041 533.418 140.913C533.418 140.913 530.951 130 518.302 130C507.323 130 504.22 140.913 504.22 140.913C504.22 140.913 496.185 134.923 489.74 143.621C489.74 143.621 480.591 140.749 479 146Z" fill="#3357C6"/>
<path opacity="0.1" d="M280 84C280 84 274.414 73.5538 259.077 77.3231C259.077 77.3231 256.142 63 241.09 63C228.025 63 224.332 77.3231 224.332 77.3231C224.332 77.3231 208.466 68.0217 202 84C202 84 266.53 84 280 84Z" fill="#3357C6"/>
<path opacity="0.1" d="M347 78H435C435 78 429.263 68.5487 413.51 71.959C413.51 71.959 410.496 59 395.035 59C381.617 59 377.824 71.959 377.824 71.959C377.824 71.959 368.003 64.8462 360.127 75.1744C360.127 75.1744 348.945 71.7641 347 78Z" fill="#3357C6"/>
<path opacity="0.1" d="M225 149H271C271 149 268.001 144.026 259.767 145.821C259.767 145.821 258.191 139 250.109 139C243.095 139 241.113 145.821 241.113 145.821C241.113 145.821 235.979 142.077 231.862 147.513C231.862 147.513 226.017 145.718 225 149Z" fill="#3357C6"/>
<path opacity="0.1" d="M312 162H418C418 162 411.09 150.559 392.115 154.687C392.115 154.687 388.484 139 369.861 139C353.697 139 349.129 154.687 349.129 154.687C349.129 154.687 337.299 146.077 327.812 158.579C327.812 158.579 314.343 154.451 312 162Z" fill="#3357C6"/>
<path opacity="0.1" d="M108.271 167.561C107.646 164.546 106.292 161.739 104.625 159.348L107.75 154.877L105.875 153.006L105.042 152.174L103.167 150.302L98.4792 153.526C95.9792 151.966 93.1667 150.822 90.1458 150.406L89.2083 145H86.5H85.3542H82.5417L81.5 150.718C78.4792 151.342 75.7708 152.59 73.375 154.357L68.8958 151.238L67.0208 153.11L66.1875 153.941L64.3125 155.813L67.5417 160.491C65.9792 162.987 64.8333 165.794 64.4167 168.913L59 169.849V172.552V173.696V176.399L64.625 177.439C65.25 180.454 66.6042 183.261 68.2708 185.652L65.1458 190.123L67.0208 191.994L67.8542 192.826L69.7292 194.698L74.4167 191.474C76.9167 193.034 79.7292 194.178 82.75 194.594L83.6875 200H86.3958H87.75H90.4583L91.5 194.282C94.5208 193.658 97.2292 192.41 99.625 190.643L104.104 193.762L105.979 191.89L106.813 191.059L108.688 189.187L105.458 184.509C107.021 182.013 108.167 179.206 108.583 176.191L114 175.255V172.552V171.408V168.705L108.271 167.561ZM86.5 185.444C79.3125 185.444 73.4792 179.622 73.4792 172.448C73.4792 165.274 79.3125 159.452 86.5 159.452C93.6875 159.452 99.5208 165.274 99.5208 172.448C99.5208 179.622 93.6875 185.444 86.5 185.444Z" fill="#3357C6"/>
<path opacity="0.1" d="M119.062 309.382C118.415 306.257 117.011 303.348 115.284 300.87L118.523 296.236L116.58 294.297L115.716 293.435L113.773 291.495L108.915 294.836C106.324 293.219 103.409 292.034 100.278 291.603L99.3068 286H96.5H95.3125H92.3977L91.3182 291.926C88.1875 292.573 85.3807 293.866 82.8977 295.698L78.2557 292.465L76.3125 294.405L75.4489 295.267L73.5057 297.206L76.8523 302.055C75.233 304.641 74.0455 307.55 73.6136 310.783L68 311.752V314.554V315.739V318.541L73.8295 319.618C74.4773 322.743 75.8807 325.652 77.608 328.13L74.3693 332.764L76.3125 334.703L77.1761 335.565L79.1193 337.505L83.9773 334.164C86.5682 335.781 89.483 336.966 92.6136 337.397L93.5852 343H96.392H97.7955H100.602L101.682 337.074C104.812 336.427 107.619 335.134 110.102 333.302L114.744 336.535L116.688 334.595L117.551 333.733L119.494 331.794L116.148 326.945C117.767 324.359 118.955 321.45 119.386 318.325L125 317.355V314.554V313.369V310.567L119.062 309.382ZM96.5 327.915C89.0511 327.915 83.0057 321.881 83.0057 314.446C83.0057 307.011 89.0511 300.977 96.5 300.977C103.949 300.977 109.994 307.011 109.994 314.446C109.994 321.881 103.949 327.915 96.5 327.915Z" fill="#3357C6"/>
<path opacity="0.1" d="M508.39 268.343C507.584 264.788 506.134 261.556 504.038 258.808L507.584 253.636L505.327 251.374L504.36 250.404L502.103 248.141L496.622 252.02C493.72 250.081 490.496 248.949 486.95 248.303L485.821 242H482.758H481.469H478.406L477.277 248.626C473.73 249.434 470.668 250.889 467.766 252.828L462.607 249.273L460.35 251.535L459.383 252.505L457.126 254.768L460.995 260.263C459.06 263.172 457.932 266.404 457.287 269.96L451 271.091V274.162V275.455V278.525L457.61 279.657C458.416 283.212 459.866 286.444 461.962 289.192L458.416 294.364L460.673 296.626L461.64 297.596L463.897 299.859L469.378 295.98C472.28 297.919 475.504 299.051 479.05 299.697L480.179 306H483.242H484.531H487.594L488.723 299.374C492.27 298.566 495.332 297.111 498.234 295.172L503.393 298.727L505.65 296.465L506.617 295.495L508.874 293.232L505.005 287.737C506.94 284.828 508.068 281.596 508.713 278.04L515 276.909V273.838V272.545V269.475L508.39 268.343ZM483.081 289.03C474.698 289.03 467.927 282.242 467.927 273.838C467.927 265.434 474.698 258.646 483.081 258.646C491.463 258.646 498.234 265.434 498.234 273.838C498.234 282.404 491.463 289.03 483.081 289.03Z" fill="#3357C6"/>
<path opacity="0.1" d="M558.925 331.094C558.4 328.45 557.175 325.982 555.6 323.867L558.4 319.813L556.65 318.05L555.95 317.345L554.2 315.583L550 318.579C547.725 317.169 545.275 316.112 542.65 315.759L541.775 311H539.325H538.275H535.825L534.95 316.112C532.325 316.64 529.875 317.874 527.775 319.46L523.75 316.64L522 318.403L521.3 319.108L519.55 320.871L522.525 325.101C521.125 327.392 520.075 329.86 519.725 332.504L515 333.385V335.853V336.91V339.378L520.075 340.259C520.6 342.903 521.825 345.371 523.4 347.486L520.775 351.187L522.525 352.95L523.225 353.655L524.975 355.417L529.175 352.421C531.45 353.831 533.9 354.888 536.525 355.241L537.225 360H539.675H540.725H543.175L544.05 354.888C546.675 354.36 549.125 353.126 551.225 351.54L555.25 354.36L557 352.597L557.7 351.892L559.45 350.129L556.475 345.899C557.875 343.608 558.925 341.14 559.275 338.496L564 337.615V335.324V334.266V331.799L558.925 331.094ZM539.5 347.133C533.2 347.133 527.95 342.022 527.95 335.5C527.95 329.155 533.025 323.867 539.5 323.867C545.975 323.867 551.05 328.978 551.05 335.5C551.05 341.845 545.975 347.133 539.5 347.133Z" fill="#3357C6"/>
<path opacity="0.1" d="M550.204 252.072C549.914 250.615 549.239 249.255 548.371 248.09L549.914 245.856L548.95 244.885L548.564 244.496L547.6 243.525L545.286 245.176C544.032 244.399 542.682 243.817 541.236 243.622L540.754 241H539.404H538.825H537.475L536.993 243.817C535.546 244.108 534.196 244.788 533.039 245.662L530.821 244.108L529.857 245.079L529.471 245.468L528.507 246.439L530.146 248.77C529.375 250.032 528.796 251.392 528.604 252.849L526 253.335V254.694V255.277V256.637L528.796 257.122C529.086 258.579 529.761 259.939 530.629 261.104L529.182 263.144L530.146 264.115L530.532 264.504L531.496 265.475L533.811 263.824C535.064 264.601 536.414 265.183 537.861 265.378L538.246 268H539.596H540.175H541.525L542.007 265.183C543.454 264.892 544.804 264.212 545.961 263.338L548.179 264.892L549.143 263.921L549.529 263.532L550.493 262.561L548.854 260.23C549.625 258.968 550.204 257.608 550.396 256.151L553 255.665V254.403V253.82V252.46L550.204 252.072ZM539.5 260.91C536.029 260.91 533.136 258.094 533.136 254.5C533.136 251.004 535.932 248.09 539.5 248.09C543.068 248.09 545.864 250.906 545.864 254.5C545.864 257.996 543.068 260.91 539.5 260.91Z" fill="#3357C6"/>
<path d="M334.41 351.435H297.417V396.333H334.41V351.435Z" fill="#EBEFFA"/>
<path d="M346.903 394H286.097C284.408 394 283 397.182 283 401C283 404.818 284.408 408 286.097 408H346.903C348.592 408 350 404.818 350 401C350 397.182 348.592 394 346.903 394Z" fill="#C7D2EE"/>
<path d="M466.499 373H165.496C162.396 373 160 370.461 160 367.499V178.501C160 175.398 162.537 173 165.496 173H466.499C469.599 173 471.994 175.539 471.994 178.501V367.499C472.135 370.461 469.599 373 466.499 373Z" fill="#C7D2EE"/>
<path d="M168.434 366.407C168.007 366.407 167.668 366.068 167.668 365.641V180.395C167.668 179.968 168.007 179.629 168.434 179.629H463.675C464.102 179.629 464.441 179.968 464.441 180.395V365.641C464.441 366.068 464.102 366.407 463.675 366.407H168.434Z" fill="#EBEFFA" stroke="#101840"/>
<path d="M451 206H290C287.239 206 285 208.239 285 211V306C285 308.761 287.239 311 290 311H451C453.761 311 456 308.761 456 306V211C456 208.239 453.761 206 451 206Z" fill="white"/>
<path d="M453.759 321H287C285.895 321 285 321.895 285 323V328.002C285 329.107 285.895 330.002 287 330.002H453.759C454.863 330.002 455.759 329.107 455.759 328.002V323C455.759 321.895 454.863 321 453.759 321Z" fill="white"/>
<path d="M274 322H191C189.895 322 189 322.895 189 324V329C189 330.105 189.895 331 191 331H274C275.105 331 276 330.105 276 329V324C276 322.895 275.105 322 274 322Z" fill="white"/>
<path d="M274 336H191C189.895 336 189 336.895 189 338V343C189 344.105 189.895 345 191 345H274C275.105 345 276 344.105 276 343V338C276 336.895 275.105 336 274 336Z" fill="white"/>
<path d="M453.759 336.114H287C285.895 336.114 285 337.009 285 338.114V343.116C285 344.22 285.895 345.116 287 345.116H453.759C454.863 345.116 455.759 344.22 455.759 343.116V338.114C455.759 337.009 454.863 336.114 453.759 336.114Z" fill="white"/>
<path d="M191.787 272.6C191.46 272.6 191.154 272.544 190.878 272.443L190.741 272.819C190.045 272.564 189.498 272.059 189.214 271.412L189.581 271.251C189.465 270.986 189.4 270.69 189.4 270.374V268.395H189V264.437H189.4V260.479H189V256.521H189.4V252.563H189V248.605H189.4V246.626C189.4 246.31 189.465 246.014 189.581 245.749L189.214 245.588C189.498 244.941 190.045 244.436 190.741 244.181L190.878 244.557C191.154 244.456 191.46 244.4 191.787 244.4H193.823V244H197.894V244.4H201.965V244H206.036V244.4H210.108V244H214.179V244.4H218.25V244H222.322V244.4H226.393V244H230.464V244.4H234.536V244H238.607V244.4H242.678V244H246.75V244.4H250.821V244H254.892V244.4H258.964V244H263.035V244.4H267.106V244H271.177V244.4H273.213C273.54 244.4 273.846 244.456 274.122 244.557L274.259 244.181C274.955 244.436 275.502 244.941 275.786 245.588L275.419 245.749C275.535 246.014 275.6 246.31 275.6 246.626V248.605H276V252.563H275.6V256.521H276V260.479H275.6V264.437H276V268.395H275.6V270.374C275.6 270.69 275.535 270.986 275.419 271.251L275.786 271.412C275.502 272.059 274.955 272.564 274.259 272.819L274.122 272.443C273.846 272.544 273.54 272.6 273.213 272.6H271.177V273H267.106V272.6H263.035V273H258.964V272.6H254.892V273H250.821V272.6H246.75V273H242.678V272.6H238.607V273H234.536V272.6H230.464V273H226.393V272.6H222.322V273H218.25V272.6H214.179V273H210.108V272.6H206.037V273H201.965V272.6H197.894V273H193.823V272.6H191.787Z" stroke="#101840" stroke-width="0.8" stroke-dasharray="4 4"/>
<path d="M298.683 189.819H266.894V197.695H298.683V189.819Z" fill="#E6F0FF"/>
<path d="M273 253L312 230L354.5 239" stroke="#101840" stroke-width="2" stroke-miterlimit="10"/>
<path d="M358.822 265.565L278.492 278.881C276.938 279.139 275.556 278.211 275.313 276.746L271.429 253.318C271.187 251.854 272.195 250.529 273.749 250.272L354.079 236.956C355.633 236.698 357.015 237.626 357.258 239.091L361.142 262.519C361.385 263.983 360.376 265.308 358.822 265.565Z" fill="#3357C6"/>
<path d="M305.815 260.511L349.206 253.319" stroke="white" stroke-width="2" stroke-miterlimit="10" stroke-linecap="round"/>
<path d="M304.886 254.909L325.628 251.471" stroke="white" stroke-width="2" stroke-miterlimit="10" stroke-linecap="round"/>
<path d="M306.664 265.637L350.056 258.445" stroke="white" stroke-width="2" stroke-miterlimit="10" stroke-linecap="round"/>
<rect x="276.75" y="254.843" width="20" height="19" rx="1" transform="rotate(-9.4121 276.75 254.843)" fill="#F6F7F9"/>
<path d="M531 408H82V409H531V408Z" fill="#101840"/>
<path d="M451 120H425C424.448 120 424 120.448 424 121V172C424 172.552 424.448 173 425 173H451C451.552 173 452 172.552 452 172V121C452 120.448 451.552 120 451 120Z" fill="#101840"/>
<path d="M459 108H407C405.895 108 405 108.895 405 110V153C405 154.105 405.895 155 407 155H459C460.105 155 461 154.105 461 153V110C461 108.895 460.105 108 459 108Z" fill="#3357C6"/>
<path d="M296.983 125.983H295V203.601H296.983V125.983Z" fill="#3357C6"/>
<path d="M311.544 125.983H309.561V203.601H311.544V125.983Z" fill="#3357C6"/>
<path d="M326.983 125.983H325V203.601H326.983V125.983Z" fill="#3357C6"/>
<path d="M311.016 221.319C310.487 221.319 310.09 220.923 310.09 220.394V209.551C310.09 209.022 310.487 208.625 311.016 208.625C311.544 208.625 311.941 209.022 311.941 209.551V220.394C311.941 220.923 311.544 221.319 311.016 221.319Z" fill="#101840"/>
<path d="M327 203H295V205H327V203Z" fill="#3357C6"/>
<path d="M310.751 233.484C309.429 233.484 307.974 233.088 306.784 232.294C305.198 231.237 304.14 229.65 303.875 227.799C303.479 225.947 304.007 224.096 305.065 222.509C306.388 220.526 308.635 219.468 311.016 219.468C311.544 219.468 311.941 219.865 311.941 220.394C311.941 220.923 311.412 221.319 311.016 221.319C309.297 221.319 307.71 222.113 306.784 223.567C305.991 224.625 305.726 226.08 305.991 227.402C306.255 228.724 307.049 229.914 308.107 230.708C310.354 232.294 313.66 231.765 315.247 229.385C315.776 228.592 316.172 227.534 316.172 226.609C316.172 226.08 316.569 225.683 317.098 225.683C317.627 225.683 318.024 226.08 318.024 226.609C318.024 228.063 317.627 229.385 316.701 230.575C315.247 232.427 312.999 233.484 310.751 233.484Z" fill="#101840"/>
<path d="M311 214C314.314 214 317 211.314 317 208C317 204.686 314.314 202 311 202C307.686 202 305 204.686 305 208C305 211.314 307.686 214 311 214Z" fill="#101840"/>
<path d="M455.673 108H286.289V136.693H455.673V108Z" fill="#3357C6"/>
<path d="M312.602 113.025L301.76 131.801L290.917 113.025H312.602Z" fill="white"/>
<path d="M329.131 131.801L318.288 113.025L307.445 131.801H329.131Z" fill="white"/>
<path d="M295.809 131.801H286.289V115.14L295.809 131.801Z" fill="white"/>
<path d="M346.849 113.025L336.007 131.801L325.164 113.025H346.849Z" fill="white"/>
<path d="M363.378 131.801L352.535 113.025L341.693 131.801H363.378Z" fill="white"/>
<path d="M381.097 113.025L370.254 131.801L359.411 113.025H381.097Z" fill="white"/>
<path d="M397.757 131.801L386.914 113.025L376.072 131.801H397.757Z" fill="white"/>
<path d="M415.476 113.025L404.633 131.801L393.79 113.025H415.476Z" fill="white"/>
<path d="M432.004 131.801L421.162 113.025L410.319 131.801H432.004Z" fill="white"/>
<path d="M449.723 113.025L438.88 131.801L428.037 113.025H449.723Z" fill="white"/>
<path d="M455.541 113.157V131.801H444.698L455.541 112.892V113.157Z" fill="white"/>
<path d="M287.289 108H284C283.448 108 283 108.448 283 109V135.693C283 136.246 283.448 136.693 284 136.693H287.289C287.841 136.693 288.289 136.246 288.289 135.693V109C288.289 108.448 287.841 108 287.289 108Z" fill="#3357C6"/>
<path d="M458.698 108H457.409C456.304 108 455.409 108.895 455.409 110V134.693C455.409 135.798 456.304 136.693 457.409 136.693H458.698C459.802 136.693 460.698 135.798 460.698 134.693V110C460.698 108.895 459.802 108 458.698 108Z" fill="#3357C6"/>
<path d="M273.213 311H191.787C190.212 311 189 309.858 189 308.374V284.626C189 283.142 190.212 282 191.787 282H273.213C274.788 282 276 283.142 276 284.626V308.374C276 309.858 274.788 311 273.213 311Z" fill="#3357C6"/>
<path d="M221.746 297.346H265.729" stroke="white" stroke-width="2" stroke-miterlimit="10" stroke-linecap="round"/>
<path d="M221.746 291.667H242.771" stroke="white" stroke-width="2" stroke-miterlimit="10" stroke-linecap="round"/>
<path d="M221.746 302.542H265.729" stroke="white" stroke-width="2" stroke-miterlimit="10" stroke-linecap="round"/>
<rect x="194" y="287" width="20" height="19" rx="1" fill="#F6F7F9"/>
<path d="M273.213 235H191.787C190.212 235 189 233.858 189 232.374V208.626C189 207.142 190.212 206 191.787 206H273.213C274.788 206 276 207.142 276 208.626V232.374C276 233.858 274.788 235 273.213 235Z" fill="#3357C6"/>
<path d="M221.746 221.346H265.729" stroke="white" stroke-width="2" stroke-miterlimit="10" stroke-linecap="round"/>
<path d="M221.746 215.667H242.771" stroke="white" stroke-width="2" stroke-miterlimit="10" stroke-linecap="round"/>
<path d="M221.746 226.542H265.729" stroke="white" stroke-width="2" stroke-miterlimit="10" stroke-linecap="round"/>
<rect x="194" y="211" width="20" height="19" rx="1" fill="#F6F7F9"/>
<path d="M135.879 200.744L130.527 200.911L127.349 199.908C125.844 199.406 124.338 200.075 123.502 201.246L123.167 201.915L138.89 210.613L141.901 204.089L135.879 200.744Z" fill="#101840"/>
<path d="M138.723 210.78L123 202.082L123.502 201.079C123.669 200.911 123.836 200.744 124.004 200.911L139.392 209.442L138.723 210.78Z" fill="#14103D"/>
<path d="M141.734 204.089L145.915 196.897L141.734 189.537L135.88 200.744L141.734 204.089Z" fill="#FDCBA6"/>
<path d="M174.183 162.942C174.183 162.942 151.937 156.586 149.763 162.607C147.588 168.629 134.541 195.224 134.541 195.224L144.243 200.242L158.795 174.985L178.365 173.312L174.183 162.942Z" fill="#24419B"/>
<path d="M156.119 208.939L151.77 211.783L148.592 212.452C147.086 212.787 146.083 213.957 145.916 215.463V216.132H163.813L163.311 208.939H156.119Z" fill="#101840"/>
<path d="M163.646 216.132H145.581V214.961C145.581 214.794 145.748 214.626 145.915 214.626H163.478L163.646 216.132Z" fill="#14103D"/>
<path d="M163.144 208.94L163.646 196.896L156.621 196.06L156.119 208.94H163.144Z" fill="#FDCBA6"/>
<path d="M177.194 161.938L156.119 162.942C156.119 162.942 153.108 163.109 153.275 170.134C153.442 177.159 153.442 205.762 153.442 205.762L163.478 206.096L165.486 176.156L186.561 175.821C191.077 175.821 195.092 173.145 196.931 169.131C197.601 167.625 197.935 165.785 197.433 163.945L177.194 161.938Z" fill="#3357C6"/>
<path d="M157.289 157.59C157.289 159.597 155.951 159.931 153.944 159.931C151.937 159.931 150.097 159.597 150.097 157.59C150.097 155.582 151.77 153.91 153.777 153.91C155.617 154.077 157.289 155.582 157.289 157.59Z" fill="#E1AD9D"/>
<path d="M159.798 159.597H155.617C154.446 159.597 153.609 158.761 153.609 157.59C153.609 156.419 154.446 155.583 155.617 155.583H159.798C160.969 155.583 161.805 156.419 161.805 157.59C161.805 158.761 160.969 159.597 159.798 159.597Z" fill="#E1AD9D"/>
<path d="M159.631 160.098L158.293 153.241L175.521 151.401L179.034 131.329C179.368 129.489 182.045 127.314 183.885 127.649L183.383 127.482C185.223 127.816 186.895 129.991 186.561 131.831L183.216 155.917C183.048 157.255 182.045 158.259 180.707 158.593L159.631 160.098Z" fill="#C7D2EE"/>
<path d="M193.921 127.984C194.255 127.984 194.59 128.151 194.924 128.151H195.092C198.102 129.322 200.109 132.5 200.109 135.51L197.433 163.946C179.703 163.778 177.027 161.771 177.027 161.771L178.365 132.667C178.532 129.991 179.87 127.314 183.048 127.147L193.921 127.984Z" fill="#EBEFFA"/>
<path d="M174.35 159.931C174.518 161.939 173.18 162.273 171.172 162.44C169.165 162.608 167.325 162.44 167.158 160.433C166.991 158.426 168.496 156.753 170.503 156.586C172.51 156.419 174.183 157.924 174.35 159.931Z" fill="#FDCBA6"/>
<path d="M177.027 161.771L172.845 162.106C171.674 162.106 170.838 161.269 170.67 160.266C170.67 159.095 171.507 158.259 172.51 158.091L176.692 157.757C177.863 157.757 178.699 158.593 178.866 159.597C179.034 160.768 178.197 161.604 177.027 161.771Z" fill="#FDCBA6"/>
<path d="M176.859 162.106L175.019 155.415L193.753 152.404L192.749 135.009C192.917 133.169 194.924 131.162 196.764 131.329C198.604 131.496 200.444 133.503 200.276 135.343L201.615 156.251C201.447 157.59 200.611 158.593 199.273 159.095L176.859 162.106Z" fill="#C7D2EE"/>
<path d="M144.577 139.023L164.984 141.03C165.653 141.03 166.154 141.699 166.322 142.369L168.496 160.768C168.663 161.604 167.827 162.44 166.991 162.273L146.25 160.266C145.581 160.266 145.079 159.597 144.912 158.928L143.072 140.529C142.904 139.692 143.574 139.023 144.577 139.023Z" fill="#091218"/>
<path d="M143.406 138.856L163.813 140.863C164.482 140.863 164.984 141.532 165.151 142.201L167.325 160.6C167.493 161.437 166.656 162.273 165.82 162.106L145.079 160.098C144.41 160.098 143.908 159.429 143.741 158.76L141.901 140.361C141.734 139.525 142.403 138.856 143.406 138.856Z" fill="#101840"/>
<path d="M167.827 160.768L181.71 162.106C182.212 162.106 182.379 162.44 182.379 162.942C182.379 163.444 182.045 163.611 181.543 163.611L166.823 162.273L167.827 160.768Z" fill="#091218"/>
<path d="M155.115 150.062C154.948 151.233 153.944 152.237 152.606 152.07C151.435 151.902 150.431 150.899 150.599 149.561C150.766 148.39 151.77 147.386 153.108 147.553C154.279 147.721 155.115 148.892 155.115 150.062Z" fill="white"/>
<path d="M192.081 139.023L192.582 152.07L175.02 155.415L190.408 150.565L192.081 139.023Z" fill="#C7D2EE"/>
<path d="M182.881 126.311L184.052 129.489C184.554 130.66 185.557 131.329 186.728 131.496C189.07 131.663 190.575 129.322 189.739 127.314L187.732 122.464L182.881 126.311Z" fill="#FDCBA6"/>
<path opacity="0.32" d="M183.885 128.987C183.885 128.987 189.572 127.816 188.736 122.798C187.899 117.78 182.547 121.627 182.547 121.627L183.049 126.645L183.885 128.987Z" fill="#E16C5F"/>
<path d="M175.02 114.101C172.845 118.617 174.853 123.969 179.369 126.144C183.885 128.318 189.237 126.311 191.412 121.795C193.586 117.279 191.579 111.926 187.063 109.752C182.38 107.577 177.027 109.585 175.02 114.101Z" fill="#FDCBA6"/>
<path d="M186.561 119.62C186.561 119.62 185.557 125.42 190.743 125.588C196.597 122.242 192.75 113.431 192.75 113.431L181.543 108.025H179.87L172.845 116.442C172.845 116.442 174.853 117.446 185.892 115.773L186.561 119.62Z" fill="#101840"/>
<path d="M181.209 113.933L185.39 120.122L189.07 116.107L181.209 113.933Z" fill="#101840"/>
<path d="M185.056 117.948C184.387 119.286 185.056 120.791 186.227 121.293C187.565 121.962 189.07 121.293 189.572 120.122C190.241 118.784 189.572 117.279 188.401 116.777C187.23 116.108 185.725 116.609 185.056 117.948Z" fill="#FDCBA6"/>
<path d="M173.18 116.275C173.18 116.275 171.507 110.534 175.689 107.188C179.87 103.843 187.565 104.982 189.906 106.352C192.248 107.722 194.924 112.206 192.248 114.435C189.572 116.664 173.18 116.275 173.18 116.275Z" fill="#3357C6"/>
<path d="M174.183 116.275V111.759C174.183 110.588 175.02 109.751 176.191 109.584C177.361 109.584 178.198 110.421 178.365 111.424L178.867 115.773" stroke="#F6F7F9" stroke-width="0.468678" stroke-miterlimit="10"/>
<path d="M192.248 114.435L171.507 116.442" stroke="white" stroke-width="1.87438" stroke-miterlimit="10" stroke-linecap="round" stroke-linejoin="round"/>
<path d="M388.163 409.319C388.878 409.319 389.415 408.783 389.593 408.247L413.722 290.643C413.9 289.928 413.364 289.213 412.649 289.035C411.934 288.856 411.219 289.392 411.041 290.107L386.912 407.711C386.734 408.426 387.27 409.141 387.985 409.319C387.985 409.319 387.985 409.319 388.163 409.319Z" fill="#3357C6"/>
<path d="M411.041 302.082H445.893C446.608 302.082 447.323 301.546 447.323 300.652C447.323 299.937 446.787 299.222 445.893 299.222H411.041C410.326 299.222 409.611 299.759 409.611 300.652C409.79 301.367 410.326 302.082 411.041 302.082Z" fill="#3357C6"/>
<path d="M407.645 317.095H442.497C443.212 317.095 443.927 316.559 443.927 315.665C443.927 314.95 443.391 314.235 442.497 314.235H407.645C406.93 314.235 406.215 314.772 406.215 315.665C406.394 316.559 406.93 317.095 407.645 317.095Z" fill="#3357C6"/>
<path d="M404.785 332.287H439.637C440.352 332.287 441.067 331.751 441.067 330.857C441.067 330.142 440.531 329.427 439.637 329.427H404.785C404.07 329.427 403.355 329.964 403.355 330.857C403.355 331.572 404.07 332.287 404.785 332.287Z" fill="#3357C6"/>
<path d="M401.568 347.3H436.42C437.135 347.3 437.85 346.764 437.85 345.87C437.85 344.976 437.314 344.44 436.42 344.44H401.568C400.853 344.44 400.138 344.976 400.138 345.87C400.138 346.764 400.853 347.3 401.568 347.3Z" fill="#3357C6"/>
<path d="M398.708 362.492H433.561C434.275 362.492 434.99 361.956 434.99 361.062C434.99 360.347 434.454 359.632 433.561 359.632H398.708C397.993 359.632 397.279 360.169 397.279 361.062C397.279 361.956 397.815 362.492 398.708 362.492Z" fill="#3357C6"/>
<path d="M395.67 377.684H430.522C431.237 377.684 431.952 377.148 431.952 376.255C431.952 375.54 431.416 374.825 430.522 374.825H395.67C394.955 374.825 394.24 375.361 394.24 376.255C394.419 376.969 394.955 377.684 395.67 377.684Z" fill="#3357C6"/>
<path d="M392.632 392.697H427.484C428.199 392.697 428.914 392.161 428.914 391.267C428.914 390.553 428.378 389.838 427.484 389.838H392.632C391.917 389.838 391.202 390.374 391.202 391.267C391.381 392.161 391.917 392.697 392.632 392.697Z" fill="#3357C6"/>
<path d="M425.339 409.319C426.054 409.319 426.59 408.783 426.769 408.247L450.897 290.643C451.076 289.928 450.54 289.213 449.825 289.035C449.11 288.856 448.395 289.392 448.216 290.107L423.909 407.711C423.731 408.426 424.267 409.141 424.982 409.319C425.16 409.319 425.339 409.319 425.339 409.319Z" fill="#3357C6"/>
<path d="M114.379 404.077L132.966 358.605C133.904 356.465 137.096 356.465 138.034 358.605L156.621 404.077H114.379Z" fill="#3357C6"/>
<mask id="mask0_952_40387" style="mask-type:alpha" maskUnits="userSpaceOnUse" x="114" y="357" width="43" height="48">
<path d="M114.379 404.077L132.966 358.605C133.904 356.465 137.096 356.465 138.034 358.605L156.621 404.077H114.379Z" fill="#3357C6"/>
</mask>
<g mask="url(#mask0_952_40387)">
<path d="M151.552 368.234H118.697V377.864H151.552V368.234Z" fill="#F6F7F9"/>
<path d="M154.18 386.602H117.008V396.231H154.18V386.602Z" fill="#F6F7F9"/>
</g>
<path d="M160 404.077H111V408H160V404.077Z" fill="#3357C6"/>
<path d="M484.379 404.077L502.966 358.605C503.904 356.465 507.096 356.465 508.034 358.605L526.621 404.077H484.379Z" fill="#3357C6"/>
<mask id="mask1_952_40387" style="mask-type:alpha" maskUnits="userSpaceOnUse" x="484" y="357" width="43" height="48">
<path d="M484.379 404.077L502.966 358.605C503.904 356.465 507.096 356.465 508.034 358.605L526.621 404.077H484.379Z" fill="#3357C6"/>
</mask>
<g mask="url(#mask1_952_40387)">
<path d="M521.552 368.234H488.697V377.864H521.552V368.234Z" fill="#F6F7F9"/>
<path d="M524.18 386.602H487.008V396.231H524.18V386.602Z" fill="#F6F7F9"/>
</g>
<path d="M530 404.077H481V408H530V404.077Z" fill="#3357C6"/>
</g>
<defs>
<clipPath id="clip0_952_40387">
<rect width="600" height="464" fill="white"/>
</clipPath>
</defs>
</svg>
