<svg width="59" height="20" viewBox="0 0 59 20" fill="none" xmlns="http://www.w3.org/2000/svg">
<path d="M0 10C0 4.47715 4.47715 0 10 0H49C54.5228 0 59 4.47715 59 10C59 15.5228 54.5228 20 49 20H10C4.47715 20 0 15.5228 0 10Z" fill="#E9ECF8"/>
<path d="M9.942 5.504H11.094V12.92H14.994V14H9.942V5.504ZM20.2647 14.216C19.6167 14.216 19.0207 14.104 18.4767 13.88C17.9327 13.648 17.4647 13.332 17.0727 12.932C16.6887 12.532 16.3847 12.06 16.1607 11.516C15.9447 10.972 15.8367 10.384 15.8367 9.752C15.8367 9.12 15.9447 8.532 16.1607 7.988C16.3847 7.444 16.6887 6.972 17.0727 6.572C17.4647 6.172 17.9327 5.86 18.4767 5.636C19.0207 5.404 19.6167 5.288 20.2647 5.288C20.9127 5.288 21.5087 5.404 22.0527 5.636C22.5967 5.86 23.0607 6.172 23.4447 6.572C23.8367 6.972 24.1407 7.444 24.3567 7.988C24.5807 8.532 24.6927 9.12 24.6927 9.752C24.6927 10.384 24.5807 10.972 24.3567 11.516C24.1407 12.06 23.8367 12.532 23.4447 12.932C23.0607 13.332 22.5967 13.648 22.0527 13.88C21.5087 14.104 20.9127 14.216 20.2647 14.216ZM20.2647 13.136C20.7527 13.136 21.1927 13.048 21.5847 12.872C21.9767 12.688 22.3127 12.444 22.5927 12.14C22.8727 11.836 23.0887 11.48 23.2407 11.072C23.3927 10.656 23.4687 10.216 23.4687 9.752C23.4687 9.288 23.3927 8.852 23.2407 8.444C23.0887 8.028 22.8727 7.668 22.5927 7.364C22.3127 7.06 21.9767 6.82 21.5847 6.644C21.1927 6.46 20.7527 6.368 20.2647 6.368C19.7767 6.368 19.3367 6.46 18.9447 6.644C18.5527 6.82 18.2167 7.06 17.9367 7.364C17.6567 7.668 17.4407 8.028 17.2887 8.444C17.1367 8.852 17.0607 9.288 17.0607 9.752C17.0607 10.216 17.1367 10.656 17.2887 11.072C17.4407 11.48 17.6567 11.836 17.9367 12.14C18.2167 12.444 18.5527 12.688 18.9447 12.872C19.3367 13.048 19.7767 13.136 20.2647 13.136ZM25.469 5.504H26.669L28.541 12.296H28.565L30.569 5.504H31.889L33.893 12.296H33.917L35.789 5.504H36.989L34.517 14H33.305L31.241 7.064H31.217L29.165 14H27.953L25.469 5.504Z" fill="black"/>
<circle cx="47" cy="10" r="4" fill="#3357C6"/>
</svg>
