<svg width="26" height="26" viewBox="0 1 22.5 26" fill="none" xmlns="http://www.w3.org/2000/svg">
<path d="M11.6819 24.1621C6.9347 24.1621 3.0252 20.8634 2.00129 16.3866H4.46799L0.605041 10.3076L0.558499 10.449C0.186166 11.5328 0 12.6638 0 13.8891V14.1718V14.7844C0 14.9729 1.17514e-08 15.1143 0.0465416 15.3028V15.397C0.605041 21.2875 5.58499 26 11.6819 26C16.0103 26 19.8267 23.5966 21.828 20.0623L20.711 18.2716C19.1751 21.7588 15.6845 24.1621 11.6819 24.1621Z" fill="#00B2E3"/>
<path d="M23.3635 14.1243C23.3635 13.7944 23.3635 13.4174 23.3169 13.0876V13.0404C22.7584 6.96144 17.7785 2.24902 11.6815 2.24902C7.26008 2.24902 3.44367 4.7466 1.44238 8.32804L2.55938 10.1188C4.09525 6.53732 7.58587 4.03974 11.6815 4.03974C16.4288 4.03974 20.4314 7.4798 21.4087 12.0037H18.8489L22.7119 18.0827C23.0842 17.0931 23.2704 16.0093 23.3635 14.8783C23.3635 14.6898 23.3635 14.407 23.3635 14.1243Z" fill="#00A19B"/>
</svg>
