<svg width="33" height="32" viewBox="0 0 33 32" fill="none" xmlns="http://www.w3.org/2000/svg">
<path d="M8 17C8 17.5523 8.44772 18 9 18H11C11.5523 18 12 17.5523 12 17V15C12 14.4477 11.5523 14 11 14H9C8.44772 14 8 14.4477 8 15V17ZM8 22C8 22.5523 8.44772 23 9 23H11C11.5523 23 12 22.5523 12 22V20C12 19.4477 11.5523 19 11 19H9C8.44772 19 8 19.4477 8 20V22ZM8 12C8 12.5523 8.44772 13 9 13H11C11.5523 13 12 12.5523 12 12V10C12 9.44772 11.5523 9 11 9H9C8.44772 9 8 9.44772 8 10V12ZM13 17C13 17.5523 13.4477 18 14 18H24C24.5523 18 25 17.5523 25 17V15C25 14.4477 24.5523 14 24 14H14C13.4477 14 13 14.4477 13 15V17ZM13 22C13 22.5523 13.4477 23 14 23H24C24.5523 23 25 22.5523 25 22V20C25 19.4477 24.5523 19 24 19H14C13.4477 19 13 19.4477 13 20V22ZM14 9C13.4477 9 13 9.44772 13 10V12C13 12.5523 13.4477 13 14 13H24C24.5523 13 25 12.5523 25 12V10C25 9.44772 24.5523 9 24 9H14Z" fill="#3357C6"/>
</svg>
